<svg width="1280" height="720" viewBox="0 0 1280 720" fill="none" xmlns="http://www.w3.org/2000/svg">
<g clip-path="url(#clip0_4403_6919)">
<mask id="mask0_4403_6919" style="mask-type:alpha" maskUnits="userSpaceOnUse" x="0" y="0" width="1280" height="720">
<rect width="1280" height="720" fill="#D9D9D9"/>
</mask>
<g mask="url(#mask0_4403_6919)">
<path fill-rule="evenodd" clip-rule="evenodd" d="M1390.14 73.231C1383.8 74.8544 1376 76.2414 1372.8 76.3105C1369.61 76.3796 1364.42 77.392 1361.27 78.5627C1358.13 79.7334 1346.66 81.7938 1335.79 83.1429C1324.92 84.492 1299.34 86.7308 1278.96 88.1177C1251.08 90.0131 1229.04 89.9886 1190.01 88.0174C1161.48 86.5769 1124.79 84.2957 1108.48 82.9511C1092.17 81.6042 1060.3 81.0423 1037.65 81.6979C1013.89 82.3869 990.801 84.2935 983.063 86.2045C975.69 88.0263 960.915 92.1338 950.232 95.3314C939.551 98.5291 930.021 101.856 929.052 102.728C928.084 103.598 922.105 106.777 915.763 109.792C909.422 112.809 899.331 118.29 893.339 121.974C887.35 125.656 874.423 135.759 864.619 144.425C854.812 153.092 840.985 168.182 833.893 177.958C826.8 187.736 819.902 198.243 818.561 201.309C817.224 204.375 814.987 207.887 813.593 209.114C812.2 210.34 804.395 225.392 796.245 242.562C788.095 259.732 778.868 279.801 775.742 287.16C772.612 294.519 766.326 308.065 761.774 317.263C757.221 326.462 749.166 341.513 743.879 350.712C738.588 359.91 732.108 370.598 729.476 374.462C726.844 378.327 724.693 382.077 724.693 382.793C724.693 383.511 717.281 392.391 708.225 402.525C699.165 412.66 683.932 427.449 674.369 435.39C664.809 443.33 647.204 455.387 635.246 462.186C623.29 468.983 595.16 482.973 572.739 493.277C550.321 503.58 531.234 512.595 530.328 513.315C529.422 514.033 520.205 518.979 509.847 524.306C499.49 529.634 484.804 538.66 477.211 544.369C469.621 550.077 455.86 561.8 446.629 570.423C437.402 579.044 428.059 588.075 425.872 590.492C423.681 592.907 417.287 600.905 411.664 608.264C406.037 615.623 396.513 629.671 390.494 639.482C384.479 649.294 377.129 662.185 374.165 668.13C371.196 674.075 365.728 686.616 362.015 695.997C358.299 705.38 350.132 729.534 343.863 749.675C336.711 772.642 333.621 787.077 335.575 788.399C337.285 789.556 340.296 789.828 342.266 789.005C344.236 788.18 345.847 785.139 345.847 782.244C345.847 779.35 347.919 771.131 350.455 763.979C352.989 756.828 359.08 739.437 363.985 725.333C368.894 711.229 375.163 694.672 377.917 688.54C380.671 682.408 386.624 669.865 391.143 660.666C395.66 651.468 406.462 633.908 415.146 621.643C423.83 609.379 434.77 595.538 439.455 590.884C444.139 586.23 447.97 581.893 447.97 581.247C447.97 580.6 449.825 578.763 452.088 577.164C454.355 575.565 464.989 567.056 475.718 558.254C486.451 549.453 504.982 537.048 516.897 530.688C528.816 524.329 540.366 518.11 542.567 516.868C544.77 515.625 548.477 513.574 550.802 512.307C553.131 511.043 560.965 507.6 568.213 504.659C575.46 501.718 596.448 491.946 614.854 482.944C633.256 473.94 658.625 459.129 671.226 450.029C683.827 440.926 702.338 424.55 712.362 413.633C722.383 402.717 735.366 386.41 741.214 377.395C747.058 368.381 757.731 349.474 764.93 335.381C772.128 321.291 786.807 290.123 797.55 266.125C808.293 242.127 819.273 219.331 821.948 215.467C824.626 211.602 826.817 207.74 826.817 206.884C826.817 206.028 833.662 196.154 842.03 184.94C850.397 173.728 861.341 160.531 866.345 155.614C871.349 150.7 884.889 140.105 896.429 132.071C907.969 124.039 926.305 113.842 937.176 109.411C948.047 104.98 966.578 99.1445 978.355 96.4419C990.132 93.7393 1012.37 90.8271 1027.77 89.973C1043.17 89.1167 1069.11 89.1903 1085.42 90.1358C1101.73 91.079 1136.35 93.4004 1162.37 95.2935C1188.38 97.1867 1220.99 98.732 1234.84 98.7275C1248.69 98.7253 1273.36 97.6461 1289.67 96.3304C1305.97 95.0148 1331.18 91.9309 1345.67 89.4757C1360.17 87.0229 1381.29 82.9957 1392.62 80.5317C1405.03 77.8268 1413.2 74.7986 1413.2 72.8965C1413.2 71.1639 1410.61 69.8661 1407.44 70.0111C1404.27 70.1582 1396.49 71.6077 1390.14 73.231ZM1385.2 93.4628C1376.14 95.1642 1356.13 98.15 1340.73 100.101C1325.33 102.05 1295.68 104.409 1274.84 105.344C1254.01 106.278 1202.86 106.12 1161.19 104.996C1109.61 103.602 1072.82 103.72 1045.96 105.364C1024.26 106.693 1005.06 108.753 1003.3 109.946C1001.54 111.139 997.284 112.114 993.842 112.114C990.402 112.114 982.173 113.719 975.558 115.679C968.943 117.641 957.601 121.305 950.353 123.823C943.106 126.34 930.505 132 922.352 136.402C914.198 140.803 900.484 149.337 891.879 155.367C883.275 161.394 876.231 167.103 876.231 168.05C876.231 168.998 874.314 171.099 871.968 172.72C869.623 174.339 862.29 181.731 855.671 189.143C849.05 196.555 840.462 207.593 836.584 213.672C832.707 219.75 825.37 233.252 820.287 243.677C815.201 254.102 807.973 269.655 804.224 278.24C800.479 286.825 793.014 305.389 787.637 319.493C782.261 333.597 773.861 353.165 768.972 362.976C764.083 372.788 754.411 388.477 747.48 397.843C740.548 407.208 728.257 421.257 720.163 429.061C712.072 436.866 693.845 450.827 679.656 460.083C665.471 469.34 631.003 488.907 603.06 503.566C575.118 518.226 538.669 539.249 522.066 550.287C505.459 561.325 485.11 576.878 476.848 584.85C468.583 592.822 455.709 607.08 448.24 616.535C440.769 625.989 429.568 641.775 423.349 651.611C417.129 661.447 405.352 685.32 397.175 704.662C389.002 724.002 378.757 750.025 374.412 762.488C369.51 776.551 367.615 786.28 369.421 788.131C371.74 790.513 373.311 790.241 377.205 786.787C379.89 784.405 382.084 780.628 382.084 778.391C382.084 776.155 384.245 768.568 386.887 761.535C389.532 754.502 394.889 740.218 398.793 729.793C402.7 719.368 411.031 700.303 417.307 687.425C423.582 674.547 430.454 661.001 432.579 657.322C434.701 653.642 443.161 641.601 451.373 630.563C459.586 619.525 473.228 603.47 481.691 594.885C490.151 586.3 506.234 572.445 517.428 564.097C528.622 555.748 552.038 541.133 569.468 531.62C586.895 522.106 610.051 509.906 620.922 504.507C631.793 499.109 645.135 492.169 650.571 489.085C656.006 486.001 674.685 473.822 692.076 462.019C709.47 450.218 728.985 435.147 735.449 428.528C741.909 421.908 751.683 409.971 757.171 401.999C762.657 394.027 770.78 381.484 775.221 374.126C779.662 366.767 786.544 353.332 790.51 344.27C794.473 335.207 802.132 315.64 807.525 300.787C812.921 285.933 821.104 266.255 825.71 257.056C830.318 247.858 837.81 234.312 842.359 226.953C846.905 219.594 855.704 206.612 861.908 198.105C868.111 189.598 880.175 177.064 888.71 170.251C897.249 163.439 906.457 156.005 909.174 153.732C911.892 151.46 922.806 145.569 933.43 140.638C944.051 135.708 961.841 128.934 972.962 125.584C984.081 122.233 1005.04 117.864 1019.53 115.875C1034.03 113.889 1059.23 112.029 1075.54 111.743C1091.84 111.46 1141.51 112.031 1185.9 113.014C1252.6 114.491 1273.97 114.17 1309.05 111.166C1332.39 109.168 1364.07 105.636 1379.44 103.317C1394.81 100.998 1408.87 98.1032 1410.67 96.8834C1412.47 95.6615 1412.95 93.5721 1411.74 92.2386C1410.52 90.9051 1407.76 89.9396 1405.6 90.0912C1403.44 90.2428 1394.26 91.7614 1385.2 93.4628ZM1395.81 115.71C1394.7 116.462 1384.45 118.491 1373.03 120.221C1361.61 121.952 1335.21 125.332 1314.38 127.734C1281.82 131.487 1260.4 132.107 1162.22 132.142C1072.12 132.174 1043.2 132.901 1025.5 135.576C1013.16 137.441 993.427 141.653 981.649 144.933C969.872 148.213 953.565 154.036 945.412 157.871C937.259 161.704 922.095 171.672 911.711 180.02C901.331 188.367 888.562 201.338 883.334 208.844C878.109 216.352 871.408 226.157 868.444 230.634C865.479 235.112 863.054 239.893 863.054 241.258C863.054 242.622 861.545 245.481 859.7 247.611C857.856 249.74 849.702 267.474 841.582 287.022C833.461 306.571 826.817 324.825 826.817 327.586C826.817 330.348 825.334 333.229 823.522 333.988C821.71 334.746 820.228 337.185 820.228 339.408C820.228 341.634 816.416 351.358 811.762 361.018C807.103 370.68 795.741 390.627 786.507 405.344C777.277 420.061 768.487 432.437 766.975 432.845C765.463 433.256 764.225 434.647 764.225 435.943C764.225 437.236 755.923 445.631 745.776 454.598C735.63 463.564 719.662 475.717 710.293 481.604C700.924 487.493 687.362 495.588 680.15 499.595C672.942 503.604 653.7 513.072 637.393 520.64C621.087 528.206 596.626 540.116 583.037 547.105C569.448 554.096 549.58 565.698 538.884 572.889C528.187 580.08 511.88 593.018 502.646 601.641C493.412 610.262 484.063 619.293 481.875 621.71C479.685 624.125 473.29 632.124 467.66 639.482C462.034 646.841 452.563 661.391 446.613 671.816C440.664 682.241 432.009 699.299 427.384 709.724C422.756 720.149 416.681 734.699 413.877 742.057C411.077 749.416 406.446 762.265 403.589 770.611C400.73 778.958 399.257 786.733 400.315 787.893C401.372 789.052 403.556 790 405.171 790C406.781 790 410.376 784.733 413.156 778.293C415.933 771.855 421.076 758.559 424.584 748.747C428.089 738.936 433.232 725.389 436.009 718.644C438.786 711.898 443.23 701.73 445.888 696.046C448.544 690.362 456.328 676.815 463.187 665.942C470.042 655.069 479.8 641.362 484.87 635.482C489.943 629.602 494.091 624.281 494.091 623.657C494.091 623.033 502.027 615.259 511.722 606.382C521.42 597.507 538.841 584.054 550.43 576.493C562.023 568.929 582.069 557.429 594.976 550.938C607.883 544.449 636.791 530.383 659.215 519.682C681.639 508.983 710.563 492.927 723.494 484.003C736.421 475.082 752.358 462.523 758.908 456.096C765.457 449.67 770.813 443.399 770.813 442.16C770.813 440.922 772.072 439.907 773.61 439.907C775.149 439.907 783.141 430.125 791.37 418.166C799.596 406.207 811.804 384.885 818.495 370.781C825.186 356.677 834.025 337.109 838.133 327.298C842.241 317.486 849.666 298.421 854.627 284.93C859.592 271.439 864.81 258.394 866.22 255.941C867.63 253.489 872.795 244.458 877.697 235.872C882.599 227.287 891.919 213.799 898.409 205.898C904.895 197.998 916.046 187.243 923.185 182.001C930.327 176.756 944.526 168.71 954.741 164.121C964.957 159.532 982.377 153.552 993.456 150.829C1004.53 148.108 1023.09 144.703 1034.68 143.267C1048.23 141.586 1092.87 140.736 1159.54 140.888C1216.62 141.017 1275.17 140.132 1289.67 138.919C1304.16 137.708 1327.14 135.296 1340.73 133.561C1354.32 131.826 1375.07 128.691 1386.85 126.594C1398.63 124.498 1410.1 121.773 1412.35 120.54C1414.59 119.307 1415.61 117.407 1414.62 116.321C1413.63 115.233 1409.45 114.343 1405.32 114.343C1401.2 114.343 1396.92 114.959 1395.81 115.71ZM1385.2 141.501C1379.71 142.748 1309.46 144.59 1227.08 145.644C1145.54 146.69 1069.94 148.483 1059.07 149.629C1048.19 150.778 1030.41 153.469 1019.53 155.612C1008.66 157.753 994.58 161.28 988.238 163.448C981.897 165.618 967.728 171.868 956.754 177.34C945.092 183.153 931.405 192.749 923.818 200.431C916.676 207.66 908.842 216.082 906.404 219.148C903.969 222.214 898.942 229.74 895.233 235.872C891.527 242.005 886.335 252.541 883.7 259.286C881.064 266.032 876.824 278.825 874.275 287.717C871.728 296.61 867.61 311.158 865.123 320.051C862.639 328.944 856.772 345.75 852.087 357.401C847.406 369.053 839.368 386.613 834.229 396.424C829.09 406.236 819.22 421.789 812.295 430.988C805.374 440.186 790.418 456.743 779.066 467.781C767.71 478.819 749.72 493.324 739.086 500.016C728.452 506.708 700.104 521.76 676.092 533.465C652.076 545.169 622.427 559.494 610.206 565.294C597.98 571.096 580.606 580.127 571.593 585.363C562.58 590.601 551.461 597.482 546.885 600.656C542.31 603.831 533.26 610.616 526.774 615.739C520.29 620.861 508.19 633.315 499.889 643.416C491.587 653.517 480.377 671.314 474.977 682.965C469.574 694.616 462.772 712.177 459.863 721.988C456.951 731.8 451.601 749.594 447.974 761.531C444.35 773.465 441.382 784.755 441.382 786.617C441.382 788.477 443.507 790 446.102 790C448.698 790 451.581 788.243 452.51 786.098C453.439 783.95 458.146 769.151 462.973 753.207C467.799 737.263 472.895 720.706 474.299 716.414C475.699 712.121 479.098 703.09 481.852 696.345C484.606 689.599 490.52 677.315 494.997 669.046C499.474 660.78 508.138 648.237 514.249 641.173C520.36 634.111 540.933 617.797 559.964 604.919C578.995 592.042 603.462 577.5 614.333 572.606C625.205 567.711 642.994 559.434 653.865 554.211C664.736 548.991 675.206 543.849 677.133 542.788C679.06 541.724 683.659 539.76 687.358 538.419C691.055 537.081 700.598 532.327 708.564 527.859C716.53 523.388 729.493 516.069 737.369 511.596C745.249 507.121 761.431 495.588 773.33 485.966C785.229 476.344 802.88 458.783 812.555 446.943C822.231 435.102 834.739 417.961 840.35 408.854C845.96 399.745 854.272 382.686 858.821 370.946C863.37 359.203 869.06 343.074 871.461 335.103C873.863 327.131 877.961 313.082 880.567 303.884C883.172 294.686 889.227 277.199 894.024 265.024C898.817 252.849 906.7 236.793 911.543 229.346C916.386 221.898 923.113 213.295 926.493 210.229C929.869 207.163 940.329 199.233 949.731 192.608C960.994 184.672 974.85 177.971 990.343 172.967C1003.28 168.788 1025.51 163.321 1039.76 160.817C1062.98 156.731 1080.48 156.08 1208.96 154.517C1289.97 153.529 1364.43 151.578 1380.26 150.026C1395.66 148.519 1410.1 146.28 1412.35 145.056C1414.59 143.829 1415.61 141.936 1414.62 140.85C1413.63 139.762 1408.83 138.959 1403.95 139.064C1399.08 139.169 1390.64 140.266 1385.2 141.501ZM1386.85 163.626C1380.51 164.726 1361.24 167.549 1344.02 169.903C1326.81 172.258 1300.13 174.773 1284.73 175.496C1269.33 176.216 1245.61 175.875 1232.02 174.738C1218.43 173.601 1189.52 170.945 1167.78 168.838C1134.21 165.582 1124.03 165.406 1100.24 167.671C1084.84 169.136 1064.09 171.908 1054.12 173.828C1044.16 175.748 1034.52 178.078 1032.71 179.006C1030.9 179.936 1025.71 181.459 1021.18 182.393C1016.65 183.325 1005.53 187.346 996.474 191.326C987.414 195.306 973.809 202.547 966.239 207.415C958.672 212.285 946.506 222.524 939.206 230.168C931.905 237.812 920.711 253.261 914.327 264.498C907.942 275.736 899.707 293.459 896.027 303.884C892.347 314.309 887.139 331.367 884.454 341.792C881.772 352.217 877.44 367.269 874.835 375.241C872.229 383.212 868.355 394.752 866.227 400.884C864.102 407.016 861.035 412.988 859.414 414.152C857.793 415.318 856.465 417.622 856.465 419.276C856.465 420.929 849.103 432.517 840.106 445.032C831.109 457.544 821.845 469.705 819.516 472.056C817.191 474.408 806.965 482.436 796.792 489.895C786.623 497.356 774.763 505.972 770.438 509.043C766.115 512.113 751.459 520.716 737.87 528.162C724.281 535.605 701.303 547.638 686.808 554.9C672.313 562.161 659.712 568.61 658.807 569.23C657.901 569.85 649.747 574.367 640.688 579.271C631.628 584.177 620.576 590.197 616.125 592.65C611.675 595.105 597.2 604.507 583.956 613.542C570.713 622.58 551.893 638.133 542.135 648.105C532.374 658.08 520.346 672.764 515.408 680.735C510.47 688.707 503.786 700.749 500.558 707.494C497.329 714.239 492.394 725.779 489.587 733.138C486.784 740.496 482.205 753.104 479.408 761.154C476.611 769.204 474.325 779.071 474.325 783.081C474.325 787.906 475.718 790.067 478.443 789.471C480.709 788.976 485.12 781.116 488.247 772.005C491.373 762.891 496.39 748.413 499.395 739.827C502.402 731.242 508.533 716.692 513.02 707.494C517.51 698.296 527.087 682.742 534.304 672.931C541.519 663.119 553.141 650.074 560.129 643.942C567.119 637.81 580.692 627.274 590.291 620.528C599.891 613.783 614.043 604.462 621.742 599.815C629.438 595.168 645.745 586.242 657.98 579.98C670.211 573.719 692.82 562.025 708.221 553.995C723.622 545.965 745.823 533.819 757.554 527.002C769.288 520.186 785.377 510.093 793.31 504.574C801.243 499.055 815.543 487.515 825.094 478.93C834.644 470.345 845.439 459.307 849.089 454.402C852.736 449.496 861.012 434.946 867.475 422.068C873.938 409.191 880.913 393.637 882.975 387.505C885.037 381.373 892.397 357.792 899.331 335.103C906.266 312.413 913.671 289.334 915.789 283.815C917.908 278.296 925.251 265.753 932.106 255.941C938.958 246.13 951.246 231.997 959.406 224.533C968.281 216.421 982.371 207.294 994.458 201.829C1005.58 196.805 1026.63 189.571 1041.26 185.753C1059.92 180.881 1078.36 178.069 1103.16 176.314C1134.59 174.089 1143.74 174.345 1186.14 178.642C1212.36 181.298 1248.6 183.463 1266.68 183.454C1284.76 183.448 1315.96 181.528 1336.01 179.191C1356.06 176.854 1379.04 173.79 1387.07 172.383C1395.1 170.976 1404.27 169.315 1407.44 168.693C1410.61 168.07 1413.2 166.124 1413.2 164.367C1413.2 162.471 1410.19 161.265 1405.79 161.399C1401.72 161.526 1393.19 162.527 1386.85 163.626ZM1396.73 185.649C1392.2 186.643 1369.97 189.058 1347.32 191.016C1324.67 192.974 1271.3 195.13 1228.72 195.808C1186.14 196.488 1136.48 198.069 1118.36 199.322C1100.24 200.578 1077.27 203.162 1067.3 205.064C1057.34 206.969 1041.03 211.074 1031.06 214.189C1021.1 217.304 1007.02 222.955 999.768 226.748C992.521 230.541 981.679 237.155 975.677 241.447C969.675 245.74 960.49 253.366 955.269 258.394C950.047 263.425 941.986 273.143 937.357 279.993C932.729 286.843 928.94 293.818 928.94 295.491C928.94 297.163 927.613 299.487 925.992 300.651C924.371 301.817 921.308 307.786 919.183 313.919C917.058 320.051 913.138 332.092 910.469 340.677C907.804 349.262 902.006 370.335 897.585 387.505C893.167 404.675 886.45 426.238 882.662 435.423C878.873 444.608 871.366 458.567 865.976 466.445C860.59 474.323 848.259 488.996 838.577 499.053C828.895 509.107 811.541 524.132 800.011 532.443C788.481 540.754 767.19 553.629 752.695 561.057C738.2 568.483 725.599 575.119 724.693 575.803C723.787 576.486 720.081 578.256 716.457 579.737C712.833 581.218 703.197 585.113 695.044 588.396C686.891 591.676 669.721 599.643 656.886 606.101C644.055 612.559 624.44 623.554 613.299 630.536C602.161 637.518 587.995 647.905 581.822 653.62C575.648 659.335 566.21 669.53 560.85 676.276C555.487 683.021 546.599 697.571 541.094 708.609C535.593 719.647 528.819 736.204 526.042 745.402C523.269 754.6 519.539 767.068 517.754 773.109C515.968 779.149 515.26 785.422 516.182 787.045C517.102 788.671 519.21 790 520.867 790C522.524 790 525.153 787.743 526.708 784.983C528.263 782.222 532.068 770.433 535.161 758.782C538.258 747.13 543.782 730.072 547.436 720.873C551.089 711.675 558.933 696.996 564.866 688.252C570.799 679.509 581.604 666.901 588.881 660.234C596.158 653.566 612.274 641.79 624.694 634.066C637.113 626.339 662.101 613.25 680.22 604.977C698.338 596.704 724.979 584.527 739.425 577.915C753.867 571.306 778.502 557.534 794.17 547.314C809.838 537.093 829.518 522.404 837.905 514.671C846.293 506.938 861.222 489.712 871.082 476.393C880.942 463.071 892.113 444.646 895.912 435.448C899.707 426.249 905.08 409.191 907.853 397.539C910.624 385.888 914.93 367.826 917.42 357.401C919.911 346.977 924.032 332.427 926.578 325.068C929.128 317.709 935.391 304.665 940.5 296.079C945.61 287.494 953.467 275.955 957.963 270.436C962.46 264.917 970.581 256.564 976.01 251.874C981.439 247.185 993.94 239.318 1003.79 234.392C1013.64 229.466 1029.37 223.153 1038.74 220.364C1048.11 217.574 1065.41 213.723 1077.18 211.807C1088.96 209.89 1110.46 207.762 1124.95 207.076C1139.45 206.391 1175.03 205.312 1204.02 204.679C1233.01 204.045 1275.86 202.908 1299.24 202.15C1322.63 201.392 1357.47 199.077 1376.66 197.003C1406.46 193.783 1411.56 192.628 1411.56 189.096C1411.56 186.819 1410.08 184.705 1408.26 184.4C1406.45 184.092 1401.26 184.656 1396.73 185.649ZM1376.97 204.723C1365.19 206.275 1343.69 208.621 1329.2 209.939C1314.7 211.257 1274.68 212.885 1240.25 213.558C1205.83 214.231 1165.8 215.877 1151.31 217.213C1136.81 218.551 1115.11 221.59 1103.07 223.967C1091.04 226.344 1072.51 231.81 1061.9 236.113C1051.28 240.417 1034.67 249.147 1025 255.516C1015.32 261.882 1001.69 272.726 994.701 279.614C987.717 286.502 976.211 300.55 969.131 310.832C962.052 321.114 953.16 336.05 949.375 344.022C945.59 351.994 940.154 365.039 937.295 373.011C934.435 380.983 930.726 392.522 929.049 398.654C927.372 404.787 924.467 414.821 922.595 420.953C920.721 427.085 916.775 437.622 913.823 444.367C910.874 451.113 905.053 463.201 900.893 471.228C896.732 479.258 888.526 492.805 882.652 501.332C876.781 509.861 866.671 521.354 860.185 526.873C853.698 532.392 840.162 542.426 830.108 549.172C820.05 555.917 800.742 566.737 787.199 573.212C773.656 579.69 738.117 595.843 708.221 609.109C678.325 622.375 643.804 639.525 631.507 647.22C619.212 654.916 602.704 667.361 594.828 674.875C586.951 682.39 575.928 695.212 570.334 703.367C564.737 711.521 558.735 722.057 556.992 726.78C555.25 731.503 550.769 743.244 547.04 752.868C543.311 762.494 539.875 774.536 539.411 779.627C538.798 786.334 539.829 788.885 543.16 788.885C546.325 788.885 549.719 782.293 554.07 767.701C557.543 756.05 564.059 738.991 568.549 729.793C573.039 720.595 581.472 706.671 587.287 698.853C593.105 691.033 606.068 678.004 616.096 669.898C626.124 661.793 643.172 650.291 653.98 644.337C664.789 638.385 685.49 628.248 699.985 621.813C714.48 615.375 739.682 604.288 755.989 597.175C772.296 590.059 794.532 579.704 805.404 574.162C816.275 568.621 833.448 558.413 843.565 551.478C853.682 544.543 867.926 532.909 875.22 525.624C882.514 518.339 891.461 508.365 895.101 503.459C898.741 498.553 905.465 487.014 910.041 477.815C914.62 468.617 920.662 455.572 923.468 448.827C926.275 442.081 931.787 427.03 935.714 415.379C939.644 403.727 946.499 384.16 950.953 371.896C955.404 359.631 962.687 342.423 967.138 333.655C971.588 324.887 978.731 313.254 983.013 307.804C987.296 302.352 994.889 293.47 999.89 288.067C1004.89 282.662 1012.44 275.428 1016.66 271.992C1020.88 268.556 1032.13 261.242 1041.66 255.739C1051.18 250.235 1067.04 243.151 1076.89 239.996C1086.75 236.838 1104.56 232.452 1116.47 230.249C1128.38 228.043 1159.62 225.176 1185.9 223.876C1212.17 222.578 1254.42 220.952 1279.79 220.268C1305.15 219.581 1344.44 216.943 1367.08 214.401C1389.73 211.861 1409.37 209.321 1410.73 208.759C1412.09 208.197 1413.2 206.291 1413.2 204.522C1413.2 202.589 1410.25 201.427 1405.79 201.606C1401.72 201.771 1388.74 203.173 1376.97 204.723ZM1362.14 222.48C1349.46 224.076 1313.14 227.02 1281.43 229.02C1249.72 231.018 1211.18 233.701 1195.78 234.978C1180.38 236.258 1156.1 239.28 1141.83 241.695C1127.56 244.107 1106.8 249 1095.71 252.563C1084.62 256.127 1067.08 263.59 1056.75 269.149C1046.42 274.708 1032.29 285.048 1025.36 292.128C1018.43 299.206 1009.45 309.771 1005.41 315.602C1001.38 321.433 993.759 336.485 988.492 349.051C983.221 361.616 977.92 375.408 976.715 379.7C975.509 383.993 973.2 390.515 971.585 394.195C969.971 397.874 965.527 408.41 961.706 417.608C957.887 426.807 948.822 446.639 941.561 461.68C934.304 476.723 923.08 495.788 916.623 504.048C910.169 512.31 897.891 526.093 889.343 534.678C880.797 543.263 866.566 554.818 857.721 560.355C848.879 565.892 834.921 574.113 826.708 578.624C818.492 583.135 784.396 598.022 750.939 611.709C717.478 625.396 679.597 641.944 666.752 648.482C653.911 655.023 635.812 666.087 626.529 673.071C617.249 680.057 604.276 691.883 597.7 699.355C591.125 706.825 581.571 721.997 576.465 733.073C571.359 744.147 565.403 759.977 563.225 768.252C561.048 776.527 560.185 784.92 561.308 786.9C562.902 789.712 564.362 789.933 567.966 787.908C570.506 786.483 573.563 780.099 574.762 773.722C575.961 767.344 579.914 754.6 583.551 745.402C587.188 736.204 596.007 720.412 603.146 710.31C612.571 696.976 622.203 687.735 638.29 676.597C650.482 668.159 668.607 657.21 678.572 652.266C688.538 647.323 709.796 637.91 725.816 631.346C741.836 624.783 764.531 615.701 776.252 611.163C787.977 606.625 808.223 597.61 821.249 591.127C834.278 584.645 852.917 574.309 862.675 568.159C872.433 562.009 886.085 551.808 893.016 545.488C899.944 539.169 910.341 528.131 916.122 520.959C921.9 513.788 930.66 502.4 935.585 495.655C940.507 488.909 948.999 473.857 954.455 462.206C959.91 450.555 966.008 437.008 968.004 432.103C969.997 427.197 973.206 419.169 975.133 414.264C977.06 409.358 983.797 392.041 990.106 375.782C996.411 359.522 1005.4 338.951 1010.09 330.07C1014.77 321.186 1021.65 310.407 1025.38 306.114C1029.11 301.821 1037.2 294.05 1043.36 288.843C1049.51 283.637 1061.49 276.131 1069.98 272.166C1078.47 268.201 1090.61 263.146 1096.95 260.934C1103.29 258.722 1120.34 254.503 1134.84 251.56C1149.33 248.616 1179.72 244.683 1202.37 242.819C1225.02 240.957 1257.63 238.86 1274.84 238.163C1292.06 237.465 1318 235.857 1332.49 234.588C1346.99 233.319 1371.08 230.704 1386.03 228.775C1404.35 226.411 1413.2 224.273 1413.2 222.21C1413.2 220.06 1409.03 219.211 1399.2 219.36C1391.51 219.478 1374.83 220.881 1362.14 222.48ZM1306.14 242.647C1275.34 244.179 1237.87 247.026 1222.89 248.978C1207.9 250.926 1187.09 254.421 1176.63 256.744C1166.18 259.068 1150.15 263.534 1141 266.672C1131.86 269.807 1117.09 276.073 1108.19 280.593C1099.29 285.113 1087.05 292.454 1080.99 296.905C1074.93 301.358 1065.53 309.327 1060.1 314.617C1054.67 319.904 1046.16 330.44 1041.18 338.03C1036.2 345.619 1029.6 357.847 1026.5 365.206C1023.4 372.565 1019.42 382.097 1017.64 386.39C1015.86 390.683 1009.94 408.745 1004.47 426.528C999.001 444.311 992.254 464.882 989.48 472.241C986.706 479.599 982.061 490.582 979.159 496.645C976.26 502.708 969.526 513.244 964.196 520.058C958.869 526.873 947.787 538.865 939.571 546.706C931.355 554.548 914.63 567.618 902.401 575.75C889.596 584.264 867.152 595.712 849.482 602.743C832.608 609.459 808.26 618.067 795.376 621.871C782.492 625.677 761.688 632.168 749.143 636.296C736.602 640.423 725.599 644.335 724.693 644.986C723.787 645.639 720.081 647.43 716.457 648.964C712.833 650.5 706.505 652.741 702.394 653.943C698.286 655.145 686.406 661.915 676 668.988C665.593 676.064 653.49 684.829 649.098 688.473C644.71 692.115 635.47 702.651 628.561 711.887C621.657 721.121 613.612 734.197 610.686 740.942C607.764 747.688 603.311 758.523 600.794 765.023C598.274 771.521 596.215 779.883 596.215 783.605C596.215 787.971 597.654 790.047 600.27 789.456C602.5 788.954 605.607 784.606 607.175 779.794C608.743 774.982 612.943 764.022 616.508 755.437C620.075 746.852 625.251 736.315 628.015 732.023C630.775 727.73 636.982 718.951 641.801 712.511C646.624 706.074 655.364 696.325 661.225 690.848C667.085 685.371 681.412 675.569 693.061 669.064C704.713 662.56 720.591 654.947 728.346 652.144C736.104 649.341 762.545 640.892 787.104 633.37C811.663 625.849 844.804 614.269 860.748 607.642C877.865 600.526 899.973 588.594 914.719 578.513C928.453 569.12 945.471 555.465 952.534 548.164C959.597 540.863 971.094 526.815 978.082 516.946C985.066 507.076 994.01 491.652 997.956 482.672C1001.9 473.692 1007.3 459.142 1009.95 450.339C1012.6 441.535 1016.89 426.807 1019.47 417.608C1022.06 408.41 1025.74 395.851 1027.63 389.699C1029.53 383.547 1035.4 370.248 1040.68 360.146C1045.95 350.045 1055.83 335.053 1062.62 326.83C1069.42 318.608 1083.6 306.29 1094.15 299.456C1104.69 292.621 1121.28 283.766 1131 279.777C1140.72 275.787 1161.17 269.649 1176.44 266.134C1191.7 262.618 1216.94 258.127 1232.51 256.151C1248.08 254.178 1288.06 251.569 1321.36 250.356C1354.66 249.143 1388.95 247.55 1397.56 246.819C1407.87 245.943 1413.2 244.42 1413.2 242.353C1413.2 239.9 1407.64 239.289 1387.67 239.541C1373.63 239.719 1336.94 241.117 1306.14 242.647ZM1292.96 273.85C1271.22 275.433 1243.66 278.307 1231.71 280.238C1219.77 282.169 1204.2 285.314 1197.12 287.222C1190.04 289.133 1176.16 293.388 1166.26 296.679C1155.65 300.207 1138.07 309.539 1123.39 319.44C1105.51 331.497 1095.4 340.608 1087.45 351.827C1081.36 360.412 1075.09 369.443 1073.5 371.896C1071.92 374.349 1067.02 383.953 1062.6 393.24C1058.19 402.528 1049.27 427.951 1042.8 449.737C1036.32 471.523 1028.63 494.528 1025.71 500.864C1022.8 507.196 1015.14 519.905 1008.69 529.103C1002.24 538.301 990.771 552.35 983.204 560.321C975.637 568.293 957.736 582.973 943.429 592.94C929.118 602.91 909.998 614.45 900.939 618.584C891.879 622.72 883.726 626.736 882.82 627.51C881.914 628.284 868.371 633.406 852.726 638.891C837.078 644.375 821.513 649.452 818.136 650.173C814.756 650.895 797.507 655.005 779.803 659.306C762.096 663.61 739.863 669.941 730.395 673.375C720.924 676.811 703.54 686.143 691.756 694.115C679.976 702.087 665.646 714.63 659.913 721.988C654.181 729.347 645.718 743.395 641.109 753.207C636.497 763.018 632.294 775.06 631.767 779.965C631.075 786.388 632.08 788.885 635.364 788.885C638.398 788.885 642.45 781.794 647.468 767.701C651.618 756.05 658.497 741.442 662.75 735.241C667.006 729.039 676.013 718.871 682.763 712.645C689.516 706.419 700.918 697.732 708.099 693.339C715.284 688.946 728.257 682.923 736.928 679.953C745.599 676.982 766.778 671.261 783.99 667.238C801.203 663.213 827.864 655.955 843.239 651.107C858.613 646.259 879.064 638.885 888.681 634.722C898.3 630.556 911.662 623.907 918.379 619.946C925.093 615.984 938.78 607.22 948.795 600.468C958.81 593.718 971.931 583.963 977.96 578.792C983.985 573.62 992.929 565.091 997.834 559.837C1002.74 554.584 1009.39 546.775 1012.6 542.482C1015.82 538.19 1022.81 527.152 1028.14 517.953C1033.47 508.755 1040.88 493.202 1044.62 483.39C1048.35 473.579 1053.5 458.025 1056.05 448.827C1058.6 439.629 1062.14 427.085 1063.93 420.953C1065.71 414.821 1069.54 404.285 1072.43 397.539C1075.32 390.794 1078.98 383.268 1080.55 380.815C1082.13 378.362 1086.66 371.338 1090.62 365.206C1094.58 359.074 1102.38 349.541 1107.95 344.022C1113.52 338.503 1123.24 330.201 1129.53 325.572C1135.83 320.943 1148.49 313.812 1157.67 309.724C1166.86 305.639 1184 299.716 1195.78 296.566C1207.56 293.415 1226.83 289.33 1238.61 287.49C1250.38 285.65 1277.81 283.115 1299.55 281.857C1321.29 280.6 1355.76 278.912 1376.14 278.104C1404.56 276.98 1413.2 275.915 1413.2 273.538C1413.2 271.042 1405.31 270.489 1372.85 270.706C1350.66 270.853 1314.7 272.269 1292.96 273.85ZM1325.91 301.576C1263.92 302.617 1247.14 303.592 1233.66 306.939C1224.61 309.189 1207.25 314.543 1195.09 318.835C1182.93 323.128 1165.3 331.807 1155.9 338.12C1146.51 344.432 1134.11 354.614 1128.35 360.746C1122.6 366.878 1114.77 377.415 1110.96 384.16C1107.16 390.906 1101.84 401.442 1099.15 407.574C1096.47 413.706 1091 428.256 1087.02 439.907C1083.03 451.559 1076.07 468.617 1071.55 477.815C1067.03 487.014 1055.84 506.079 1046.68 520.183C1037.52 534.287 1018.89 557.3 1005.27 571.324C991.065 585.943 969.154 604.594 953.898 615.047C939.265 625.073 918.399 637.734 907.527 643.186C896.656 648.636 873.678 657.656 856.465 663.231C839.253 668.805 817.757 675.241 808.698 677.531C799.638 679.821 780.604 685.521 766.399 690.197C751.621 695.065 732.988 703.556 722.845 710.052C713.094 716.293 700.611 726.149 695.107 731.956C689.605 737.76 681.409 749.666 676.896 758.409C672.382 767.153 668.689 777.921 668.689 782.34C668.689 787.413 670.09 790.056 672.488 789.514C674.576 789.043 679.617 781.071 683.692 771.802C687.764 762.53 695.031 749.503 699.844 742.853C704.654 736.204 714.013 726.872 720.641 722.115C727.269 717.361 741.313 709.697 751.848 705.088C762.383 700.479 787.637 692.097 807.97 686.457C828.299 680.82 855.853 672.552 869.198 668.085C882.54 663.619 905.007 654.064 919.123 646.848C933.24 639.634 955.42 625.994 968.413 616.537C981.402 607.082 1000.09 591.185 1009.94 581.213C1019.8 571.241 1035.34 553.464 1044.48 541.711C1053.62 529.959 1065.14 512.53 1070.08 502.982C1075.02 493.431 1080.13 484.449 1081.44 483.018C1082.75 481.586 1088.91 467.036 1095.12 450.684C1101.33 434.333 1108.59 415.434 1111.26 408.689C1113.92 401.943 1117.2 394.418 1118.54 391.965C1119.88 389.512 1123.92 383.009 1127.51 377.515C1131.1 372.021 1139.07 363.068 1145.22 357.618C1151.37 352.168 1162.25 344.316 1169.4 340.173C1176.56 336.028 1193.2 328.819 1206.39 324.152C1219.58 319.482 1240.1 314.017 1251.99 312.003C1268.65 309.185 1289.7 308.344 1343.65 308.344C1408.41 308.344 1413.6 308.052 1412.59 304.466C1411.98 302.334 1409.27 300.526 1406.58 300.448C1403.88 300.368 1367.58 300.876 1325.91 301.576ZM1258.37 331.468C1246.59 334.179 1227.73 339.745 1216.45 343.839C1205.16 347.931 1186.4 357.54 1174.76 365.19C1163.12 372.841 1149.78 383.186 1145.13 388.178C1140.47 393.173 1132.22 406.1 1126.79 416.911C1121.36 427.719 1113.1 449.607 1108.43 465.551C1103.76 481.495 1097.74 500.56 1095.04 507.919C1092.35 515.278 1086.94 527.319 1083.03 534.678C1079.12 542.036 1069.39 555.583 1061.41 564.781C1053.44 573.979 1039.66 588.133 1030.79 596.234C1021.93 604.335 1003.17 618.397 989.104 627.481C975.038 636.568 953.154 648.618 940.47 654.262C927.787 659.906 904.164 669.176 887.976 674.86C871.787 680.544 857.368 685.195 855.928 685.195C854.492 685.195 841.793 688.841 827.713 693.299C813.629 697.756 794.697 704.609 785.638 708.527C776.578 712.444 761.754 720.717 752.695 726.91C743.635 733.102 732.184 743.558 727.253 750.147C722.318 756.737 716.039 766.642 713.298 772.161C710.56 777.68 708.297 784.035 708.271 786.283C708.244 788.533 709.967 789.978 712.105 789.496C714.24 789.014 717.03 787.175 718.308 785.406C719.583 783.64 724.014 776.175 728.149 768.816C732.286 761.457 739.705 751.423 744.64 746.517C749.575 741.611 758.884 733.941 765.328 729.47C771.772 725.001 785.845 717.725 796.598 713.303C807.35 708.881 817.033 705.264 818.116 705.264C819.197 705.264 831.607 701.612 845.686 697.15C859.77 692.688 881.667 685.724 894.35 681.676C907.033 677.629 921.858 672.5 927.293 670.279C932.729 668.058 949.243 660.002 963.989 652.376C978.737 644.749 1003.15 629.414 1018.25 618.294C1033.35 607.176 1050.08 593.346 1055.43 587.562C1060.78 581.777 1071.46 568.848 1079.16 558.832C1086.87 548.815 1097.02 532.76 1101.72 523.154C1106.42 513.547 1111.75 500.17 1113.55 493.425C1115.36 486.679 1118.95 473.133 1121.54 463.321C1124.13 453.51 1127.94 440.465 1130.01 434.333C1132.08 428.2 1139.45 415.138 1146.38 405.302C1153.69 394.946 1165.69 382.639 1174.92 376.057C1183.67 369.806 1199.73 360.751 1210.6 355.93C1221.48 351.109 1236.3 345.487 1243.55 343.433C1250.8 341.382 1268.15 338.164 1282.12 336.287C1298.55 334.077 1326.16 332.873 1360.36 332.873C1405.14 332.873 1413.2 332.362 1413.2 329.528C1413.2 326.658 1403.71 326.207 1346.49 326.359C1286.73 326.52 1277.55 327.05 1258.37 331.468ZM1345.67 346.357C1322.12 348.638 1290.24 352.13 1274.84 354.119C1259.44 356.108 1239.77 360.34 1231.11 363.527C1222.46 366.711 1208.64 374.197 1200.4 380.162C1192.16 386.127 1180.47 398.344 1174.44 407.315C1168.4 416.286 1160.41 432.056 1156.69 442.358C1152.97 452.662 1146.17 472.812 1141.58 487.134C1136.99 501.459 1128.21 522.531 1122.06 533.962C1115.92 545.394 1104.1 564.279 1095.81 575.931C1087.52 587.582 1074.75 603.26 1067.44 610.77C1060.13 618.281 1044.48 631.495 1032.66 640.136C1020.84 648.777 1001.19 660.825 988.999 666.91C976.804 672.993 958.125 681.09 947.494 684.901C936.863 688.712 907.214 697.484 881.608 704.397C856.001 711.307 826.576 720.403 816.219 724.608C805.861 728.814 792.319 736.264 786.125 741.161C779.929 746.06 770.27 756.382 764.656 764.1C759.046 771.817 754.058 780.44 753.574 783.261C753.09 786.084 754.398 788.805 756.476 789.306C758.562 789.81 762.9 785.418 766.145 779.517C769.38 773.633 776.46 764.3 781.876 758.782C787.291 753.263 797.26 745.222 804.027 740.916C810.796 736.608 825.835 729.882 837.447 725.969C849.063 722.057 872.545 715.417 889.636 711.214C906.723 707.01 927.376 701.146 935.529 698.18C943.682 695.216 961.317 688.371 974.715 682.972C988.113 677.571 1011.29 665.327 1026.22 655.763C1041.27 646.121 1062.52 629.252 1073.93 617.906C1085.24 606.647 1100.96 588.333 1108.86 577.206C1116.76 566.081 1123.24 555.837 1123.26 554.443C1123.29 553.052 1125.52 549.038 1128.23 545.524C1130.93 542.012 1133.16 537.583 1133.17 535.681C1133.18 533.781 1134.47 531.273 1136.04 530.106C1137.6 528.942 1142.73 518.455 1147.43 506.804C1152.12 495.153 1157.68 479.599 1159.78 472.241C1161.87 464.882 1165.27 453.173 1167.33 446.218C1169.39 439.265 1172.18 432.825 1173.54 431.911C1174.9 430.994 1176.01 428.539 1176.01 426.457C1176.01 424.372 1181.18 415.68 1187.49 407.137C1193.81 398.594 1204.45 387.788 1211.14 383.125C1217.83 378.461 1230.82 372.402 1240.02 369.659C1249.21 366.919 1271.55 362.996 1289.67 360.945C1307.79 358.895 1330.76 356.307 1340.73 355.194C1350.7 354.081 1367.74 352.565 1378.61 351.824C1389.49 351.084 1401.72 350.009 1405.79 349.436C1409.87 348.865 1413.2 346.91 1413.2 345.095C1413.2 342.729 1409.7 341.852 1400.85 342.002C1394.06 342.116 1369.23 344.076 1345.67 346.357ZM1347.32 361.038C1330.11 362.798 1304.51 366.8 1290.43 369.936C1276.36 373.069 1256.14 379.567 1245.51 384.372C1234.87 389.18 1221.93 396.866 1216.74 401.455C1211.55 406.042 1204.17 413.813 1200.34 418.719C1196.5 423.627 1180.47 454.736 1164.73 487.85C1148.98 520.964 1132.96 554.078 1129.13 561.436C1125.3 568.795 1117.05 582.342 1110.79 591.54C1104.53 600.738 1093.08 614.909 1085.34 623.028C1077.61 631.149 1061.86 644.582 1050.35 652.88C1038.84 661.179 1018.68 673.35 1005.57 679.926C992.445 686.504 980.928 691.885 979.969 691.885C979.011 691.885 972.695 694.237 965.935 697.112C959.179 699.986 935.938 708.569 914.294 716.184C892.65 723.801 865.225 734.48 853.349 739.917C841.473 745.355 827.311 752.594 821.875 756.005C816.44 759.417 806.435 766.809 799.638 772.431C792.846 778.054 787.285 784.307 787.285 786.327C787.285 788.348 789.311 790 791.788 790C794.265 790 800.007 786.238 804.547 781.638C809.087 777.04 816.324 770.736 820.633 767.634C824.939 764.53 836.617 757.883 846.582 752.861C856.548 747.837 872.113 740.96 881.173 737.577C890.232 734.195 911.728 726.35 928.94 720.142C946.153 713.936 967.224 706.272 975.766 703.115C984.305 699.955 1003.96 690.556 1019.44 682.227C1034.91 673.896 1056.38 660.158 1067.14 651.698C1077.9 643.235 1091.91 630.795 1098.29 624.052C1104.66 617.308 1114.38 605.269 1119.88 597.3C1125.39 589.328 1129.89 582.163 1129.89 581.378C1129.89 580.593 1132.07 576.787 1134.74 572.922C1137.41 569.058 1148.34 547.834 1159.04 525.758C1169.73 503.682 1181.03 479.599 1184.16 472.241C1187.28 464.882 1192.75 453.342 1196.31 446.597C1199.87 439.852 1206.46 429.039 1210.95 422.568C1215.44 416.099 1225.58 406.548 1233.49 401.346C1241.4 396.144 1257.27 388.651 1268.77 384.697C1280.26 380.744 1296.34 376.4 1304.49 375.044C1312.65 373.686 1340.06 370.919 1365.4 368.892C1404.1 365.797 1411.67 364.579 1412.59 361.304C1413.53 357.961 1411.17 357.433 1396.15 357.62C1386.5 357.74 1364.53 359.279 1347.32 361.038ZM1345.67 386.401C1329.36 388.593 1307.42 392.966 1296.91 396.121C1286.4 399.274 1270.68 405.652 1261.99 410.29C1253.29 414.928 1241.63 422.737 1236.07 427.643C1230.51 432.549 1222.13 441.727 1217.46 448.038C1212.78 454.348 1206.06 465.888 1202.53 473.681C1198.99 481.475 1190.69 502.902 1184.07 521.298C1177.45 539.695 1169.83 559.262 1167.13 564.781C1164.43 570.3 1155.5 585.352 1147.29 598.229C1139.08 611.107 1125.9 628.431 1117.99 636.731C1110.08 645.028 1098.89 655.321 1093.14 659.603C1087.38 663.886 1074.83 671.486 1065.24 676.492C1055.65 681.498 1021.43 694.648 989.2 705.712C956.962 716.775 921.693 730.116 910.822 735.359C899.95 740.601 885.755 748.785 879.275 753.548C872.799 758.311 862.791 766.604 857.039 771.978C851.287 777.352 846.582 783.607 846.582 785.875C846.582 788.145 847.986 790 849.702 790C851.415 790 858.241 784.47 864.869 777.713C871.494 770.954 885.745 760.017 896.534 753.407C907.326 746.798 927.557 736.94 941.488 731.501C955.423 726.062 978.372 717.934 992.481 713.439C1006.59 708.943 1019.17 705.264 1020.42 705.264C1021.68 705.264 1017.55 707.63 1011.24 710.524C1004.93 713.417 996.431 716.494 992.356 717.364C988.281 718.233 984.944 719.879 984.944 721.023C984.944 722.167 983.092 723.106 980.826 723.108C978.563 723.11 966.331 727.728 953.648 733.367C940.965 739.007 929.846 744.301 928.94 745.128C928.034 745.955 920.823 750.045 912.914 754.212C905.004 758.382 892.772 766.724 885.735 772.752C878.696 778.779 872.937 785.125 872.937 786.856C872.937 788.584 874.96 790 877.431 790C879.901 790 886.006 786.013 890.993 781.141C895.981 776.268 907.132 767.806 915.773 762.336C924.414 756.864 941.66 747.993 954.096 742.621C966.532 737.25 994.497 726 1016.24 717.62C1037.98 709.242 1070.6 695.854 1088.71 687.873C1106.83 679.89 1131.47 666.631 1143.46 658.408C1157.14 649.029 1169.06 638.147 1175.46 629.205C1181.07 621.367 1188.77 609.481 1192.58 602.792C1196.39 596.102 1201.78 585.064 1204.54 578.263C1207.31 571.462 1211.74 559.875 1214.38 552.517C1217.02 545.158 1221.21 533.618 1223.68 526.873C1226.15 520.128 1229.85 510.595 1231.9 505.689C1233.94 500.783 1236.88 494.763 1238.42 492.31C1239.96 489.857 1246.88 479.822 1253.8 470.011C1263 456.941 1272.14 448.296 1287.95 437.677C1301.81 428.361 1315.98 421.299 1327.6 417.912C1337.54 415.013 1348.24 411.75 1351.39 410.665C1354.54 409.579 1359.44 408.689 1362.27 408.689C1365.11 408.689 1377.73 407.103 1390.32 405.166C1405.45 402.835 1413.2 400.568 1413.2 398.476C1413.2 396.402 1409.58 395.31 1402.71 395.31C1396.93 395.31 1381 397.415 1367.3 399.986C1353.59 402.557 1332.74 407.737 1320.96 411.494C1306.64 416.065 1292.41 423.192 1277.99 433.019C1263.24 443.074 1252.6 453.012 1244.3 464.505C1237.62 473.744 1229.08 487.29 1225.32 494.609C1221.55 501.929 1211.24 526.985 1202.39 550.287C1193.54 573.589 1183.92 597.17 1181.02 602.689C1178.13 608.208 1169.68 619.748 1162.25 628.333C1154.83 636.918 1145.62 646.324 1141.79 649.236C1137.97 652.146 1125.2 659.723 1113.42 666.072C1101.64 672.42 1086.65 679.821 1080.09 682.519C1073.53 685.217 1067.1 687.425 1065.79 687.425C1064.48 687.425 1070.76 683.496 1079.73 678.693C1088.71 673.892 1101.27 665.612 1107.64 660.296C1114.01 654.98 1127.29 641.099 1137.16 629.448C1147.04 617.797 1159.89 600.236 1165.73 590.427C1171.57 580.616 1177.69 569.076 1179.33 564.783C1180.97 560.489 1184.49 551.458 1187.16 544.712C1189.82 537.967 1195.73 522.413 1200.28 510.149C1204.83 497.884 1212.55 479.822 1217.44 470.011C1222.33 460.199 1231.08 447.154 1236.89 441.022C1242.7 434.89 1253.99 425.819 1261.97 420.864C1269.96 415.909 1283.16 409.757 1291.32 407.193C1299.47 404.628 1313.55 400.991 1322.61 399.109C1331.67 397.23 1350.94 394.462 1365.44 392.961C1379.93 391.461 1396.14 389.572 1401.45 388.767C1406.76 387.96 1411.71 386.091 1412.43 384.615C1413.37 382.708 1408.18 382.002 1394.54 382.175C1383.97 382.309 1361.98 384.211 1345.67 386.401ZM1372.03 417.368C1359.34 419.508 1343.78 423.072 1337.44 425.286C1331.09 427.5 1319.41 432.874 1311.48 437.227C1303.54 441.578 1290.39 451.237 1282.24 458.69C1274.09 466.142 1264.51 476.756 1260.95 482.275C1257.39 487.794 1251.72 498.33 1248.35 505.689C1244.98 513.048 1237.11 533.117 1230.85 550.287C1224.59 567.457 1216.27 588.028 1212.35 596C1208.44 603.971 1200.09 617.427 1193.79 625.9C1187.49 634.372 1175.1 647.416 1166.27 654.889C1157.43 662.359 1143.78 672.639 1135.93 677.732C1128.08 682.825 1109.06 692.449 1093.66 699.116C1078.26 705.784 1048.61 717.051 1027.77 724.156C1006.93 731.258 979.508 741.683 966.825 747.32C954.142 752.955 935.242 763.159 924.822 769.991C914.403 776.824 905.88 784.122 905.88 786.207C905.88 788.294 907.244 790 908.911 790C910.578 790 920.705 784.068 931.414 776.819C942.121 769.572 961.142 759.194 973.68 753.762C986.215 748.328 1016.52 736.857 1041.01 728.27C1065.51 719.683 1091.76 710.005 1099.35 706.76C1106.94 703.518 1123.75 694.692 1136.7 687.144C1149.65 679.598 1169.11 665.334 1179.94 655.446C1190.78 645.559 1203.19 632.721 1207.53 626.919C1211.88 621.119 1219.9 607.258 1225.37 596.118C1230.84 584.979 1235.31 574.194 1235.31 572.153C1235.31 570.113 1236.74 565.361 1238.48 561.595C1240.23 557.828 1244.85 545.716 1248.75 534.678C1252.65 523.64 1259.61 507.584 1264.21 498.999C1268.81 490.414 1279.01 476.734 1286.88 468.602C1294.75 460.467 1306.88 450.332 1313.84 446.077C1320.79 441.825 1334.5 435.811 1344.31 432.716C1354.12 429.619 1369.56 425.979 1378.61 424.628C1387.67 423.277 1399.16 421.629 1404.15 420.962C1409.15 420.295 1413.2 418.273 1413.2 416.451C1413.2 414.295 1410.06 413.207 1404.15 413.314C1399.16 413.403 1384.71 415.227 1372.03 417.368ZM1377.37 443.324C1359.54 448.987 1347.27 455.051 1331.25 466.113C1319.25 474.402 1304.69 487.25 1298.89 494.664C1293.08 502.077 1283.86 517.18 1278.39 528.227C1272.93 539.271 1262.5 564.306 1255.22 583.86C1247.95 603.414 1237.99 625.936 1233.1 633.908C1228.21 641.88 1220.98 651.914 1217.03 656.207C1213.09 660.499 1203.84 669.149 1196.49 675.43C1189.14 681.71 1173 691.343 1160.63 696.837C1148.25 702.332 1132.2 708.932 1124.95 711.506C1117.7 714.079 1104.36 718.298 1095.3 720.88C1086.24 723.462 1075.87 726.363 1072.24 727.327C1068.62 728.29 1050.83 733.869 1032.71 739.727C1014.59 745.583 992.356 753.711 983.297 757.787C974.237 761.861 960.523 769.427 952.824 774.6C945.125 779.774 938.823 785.353 938.823 787.003C938.823 788.651 940.892 790 943.422 790C945.952 790 952.587 786.481 958.164 782.182C963.741 777.883 980.572 769.019 995.568 762.485C1010.56 755.954 1041.36 745.288 1064.01 738.786C1086.66 732.284 1117.6 722.544 1132.76 717.138C1147.93 711.733 1165.71 704.593 1172.29 701.27C1178.86 697.948 1188.76 692.219 1194.28 688.54C1199.81 684.861 1209.13 677.645 1215 672.505C1220.87 667.365 1231.47 654.784 1238.56 644.547C1245.65 634.309 1256.08 613.928 1261.75 599.26C1267.41 584.589 1274.26 566.565 1276.96 559.206C1279.66 551.848 1284.15 540.81 1286.95 534.678C1289.74 528.545 1297.79 515.501 1304.84 505.689C1311.88 495.878 1323.62 483.143 1330.93 477.387C1338.23 471.634 1354.17 462.443 1366.35 456.966C1378.53 451.487 1393.68 446.097 1400.02 444.989C1406.6 443.836 1412.01 441.355 1412.62 439.209C1413.31 436.772 1411.57 435.477 1407.68 435.528C1404.38 435.572 1390.74 439.08 1377.37 443.324ZM1382.93 476.649C1369.32 482.043 1351.3 491.641 1342.88 497.978C1334.46 504.318 1322.36 516.674 1315.99 525.435C1308.93 535.157 1298.58 556.965 1289.44 581.376C1281.2 603.383 1270.01 628.469 1264.58 637.123C1259.15 645.78 1248.18 659.886 1240.2 668.471C1232.23 677.056 1216.38 690.616 1204.97 698.603C1193.58 706.591 1180.43 715.12 1175.77 717.558C1171.1 719.995 1163.98 723.288 1159.93 724.876C1155.88 726.464 1144.14 730.625 1133.82 734.126C1123.51 737.624 1107.66 742.653 1098.6 745.297C1089.54 747.942 1079.16 750.917 1075.54 751.911C1071.91 752.904 1061.54 756.005 1052.48 758.804C1043.42 761.602 1026 768.339 1013.77 773.773C1001.54 779.207 991.532 785.081 991.532 786.827C991.532 788.573 993.463 790 995.825 790C998.187 790 1005.97 787.114 1013.12 783.587C1020.27 780.057 1036.5 773.57 1049.18 769.166C1061.87 764.764 1079.66 759.223 1088.71 756.853C1097.77 754.485 1117.79 748.495 1133.19 743.542C1148.59 738.59 1173.63 727.77 1188.83 719.498C1205.96 710.172 1223.96 697.618 1236.19 686.464C1247.05 676.568 1260.65 661.915 1266.42 653.903C1272.19 645.891 1279.58 633.85 1282.85 627.144C1286.12 620.439 1293.1 603.414 1298.36 589.31C1303.61 575.206 1310.2 558.649 1313 552.517C1315.79 546.385 1323.28 534.113 1329.63 525.25C1338 513.572 1346.6 505.812 1360.85 497.084C1371.66 490.459 1387.87 482.674 1396.86 479.787C1405.85 476.897 1413.2 473.324 1413.2 471.846C1413.2 470.368 1411.96 468.639 1410.44 468.002C1408.92 467.366 1396.54 471.257 1382.93 476.649ZM1398.15 502.137C1392.84 504.349 1381 511.572 1371.83 518.188C1360.67 526.24 1351.76 535.757 1344.88 546.973C1339.22 556.187 1330.6 573.748 1325.71 585.996C1320.82 598.243 1312.42 617.295 1307.05 628.333C1301.67 639.371 1290.11 658.436 1281.36 670.701C1272.61 682.965 1259.86 698.079 1253.03 704.288C1246.21 710.493 1234.6 718.704 1227.23 722.528C1219.87 726.354 1204.97 732.426 1194.11 736.023C1183.25 739.622 1157.67 746.798 1137.26 751.974C1116.85 757.149 1089.43 765.362 1076.31 770.225C1063.2 775.086 1049.61 780.985 1046.11 783.33C1040.14 787.331 1040.1 787.69 1045.52 789.099C1048.99 790 1054.84 788.901 1060.13 786.356C1064.98 784.022 1076.46 779.41 1085.63 776.108C1094.81 772.805 1126.37 763.56 1155.78 755.566C1185.18 747.57 1215.7 738.017 1223.6 734.335C1231.51 730.656 1245.37 722.026 1254.41 715.16C1263.45 708.295 1276.9 694.824 1284.3 685.224C1291.7 675.627 1300.95 662.41 1304.85 655.856C1308.75 649.305 1314.72 638.925 1318.12 632.793C1321.52 626.661 1327.41 613.114 1331.21 602.689C1335.01 592.265 1341.83 576.209 1346.37 567.011C1350.91 557.813 1356.88 547.33 1359.63 543.718C1362.38 540.103 1369.81 532.452 1376.13 526.715C1382.46 520.977 1393.35 513.9 1400.33 510.985C1407.31 508.073 1413.07 504.494 1413.12 503.033C1413.17 501.573 1411.99 499.869 1410.5 499.247C1409.01 498.625 1403.45 499.925 1398.15 502.137ZM1387.86 541.483C1379.15 548.291 1368.65 557.902 1364.52 562.843C1360.39 567.783 1354.21 580.022 1350.8 590.044C1347.38 600.065 1342.12 619.161 1339.12 632.478C1336.11 645.798 1330.09 663.86 1325.73 672.616C1321.38 681.375 1312.64 695.136 1306.3 703.195C1299.67 711.635 1285.54 724.082 1272.98 732.54C1258.97 741.975 1242.74 750.123 1227.59 755.316C1214.63 759.765 1185.59 768.167 1163.07 773.992C1140.55 779.814 1121.53 785.799 1120.8 787.288C1120.02 788.874 1122.5 790 1126.77 790C1130.78 790 1149.07 786.37 1167.4 781.932C1185.73 777.495 1209.22 771.03 1219.61 767.567C1230 764.104 1244.83 758.298 1252.56 754.665C1260.29 751.03 1271.99 744.7 1278.57 740.597C1285.14 736.494 1295.95 728.239 1302.59 722.251C1309.22 716.264 1318.87 705.226 1324.03 697.723C1329.19 690.219 1336.38 676.554 1340.02 667.356C1343.65 658.158 1348.18 644.611 1350.08 637.253C1351.98 629.894 1356.02 614.445 1359.06 602.921C1362.1 591.399 1367.42 577.853 1370.88 572.818C1374.34 567.785 1378.98 561.686 1381.19 559.267C1383.39 556.845 1391.49 550.323 1399.16 544.772C1406.84 539.22 1413.15 533.424 1413.17 531.89C1413.19 530.358 1411.07 529.103 1408.45 529.103C1405.84 529.103 1396.58 534.673 1387.86 541.483Z" fill="#185654"/>
</g>
</g>
<defs>
<clipPath id="clip0_4403_6919">
<rect width="1280" height="720" fill="white"/>
</clipPath>
</defs>
</svg>
