<svg width="1280" height="720" viewBox="0 0 1280 720" fill="none" xmlns="http://www.w3.org/2000/svg">
<g clip-path="url(#clip0_4404_6925)">
<mask id="mask0_4404_6925" style="mask-type:alpha" maskUnits="userSpaceOnUse" x="0" y="0" width="1280" height="720">
<rect width="1280" height="720" fill="#D9D9D9"/>
</mask>
<g mask="url(#mask0_4404_6925)">
<path fill-rule="evenodd" clip-rule="evenodd" d="M-13.3502 647.891C-7.88481 645.808 -1.09707 643.787 1.73274 643.402C4.56255 643.017 9.06619 641.593 11.7406 640.235C14.415 638.878 24.3867 635.888 33.9011 633.589C43.4155 631.291 65.892 626.713 83.8486 623.417C108.407 618.91 127.972 616.7 162.822 614.494C188.3 612.881 221.102 611.188 235.714 610.729C250.327 610.272 278.679 607.541 298.719 604.665C319.744 601.646 340.049 597.615 346.725 595.135C353.086 592.771 365.787 587.63 374.947 583.71C384.105 579.791 392.228 575.873 393 575.002C393.772 574.132 398.758 570.704 404.082 567.387C409.406 564.067 417.809 558.182 422.756 554.306C427.7 550.433 438.153 540.158 445.979 531.476C453.807 522.792 464.554 508.002 469.86 498.609C475.167 489.214 480.227 479.192 481.106 476.336C481.983 473.48 483.613 470.137 484.726 468.908C485.839 467.678 491.243 453.532 496.74 437.472C502.236 421.411 508.396 402.669 510.426 395.823C512.459 388.976 516.667 376.32 519.777 367.697C522.888 359.074 528.514 344.902 532.276 336.205C536.042 327.508 540.712 317.368 542.657 313.672C544.603 309.977 546.133 306.431 546.06 305.796C545.988 305.158 551.669 296.529 558.682 286.619C565.698 276.708 577.724 262.043 585.409 254.028C593.092 246.014 607.5 233.532 617.428 226.288C627.353 219.046 650.909 203.782 669.77 192.368C688.628 180.955 704.66 171.022 705.391 170.291C706.123 169.562 713.805 164.24 722.46 158.464C731.115 152.688 743.239 143.19 749.402 137.356C755.562 131.522 766.591 119.726 773.912 111.14C781.231 102.556 788.61 93.5959 790.307 91.2295C792.008 88.8647 796.874 81.1198 801.121 74.0207C805.371 66.9213 812.403 53.4914 816.753 44.1759C821.1 34.8607 826.319 22.678 828.349 17.1027C830.382 11.5271 833.967 -0.154472 836.313 -8.85448C838.661 -17.5568 843.465 -39.8161 846.991 -58.3217C851.015 -79.4256 852.296 -92.5461 850.428 -93.5214C848.793 -94.3751 846.092 -94.3113 844.427 -93.3816C842.761 -92.45 841.639 -89.588 841.932 -87.0198C842.226 -84.4516 841.218 -76.9487 839.691 -70.3464C838.166 -63.7444 834.519 -47.6964 831.593 -34.685C828.664 -21.6732 824.775 -6.34713 822.951 -0.627026C821.127 5.09308 817.113 16.8257 814.032 25.4452C810.954 34.0644 803.142 50.7401 796.675 62.5021C790.208 74.2641 781.897 87.6535 778.21 92.2574C774.522 96.8613 771.56 101.098 771.626 101.672C771.691 102.245 770.231 104.064 768.383 105.712C766.533 107.36 757.955 115.988 749.321 124.884C740.684 133.781 725.489 146.665 715.555 153.515C705.618 160.366 695.995 167.054 694.167 168.379C692.336 169.705 689.254 171.9 687.317 173.26C685.378 174.618 678.772 178.466 672.635 181.81C666.499 185.154 648.857 195.951 633.429 205.803C618.004 215.657 596.982 231.369 586.717 240.721C576.452 250.074 561.678 266.48 553.884 277.183C546.093 287.883 536.218 303.668 531.94 312.26C527.665 320.849 520.104 338.707 515.141 351.941C510.178 365.173 500.302 394.314 493.195 416.696C486.089 439.078 478.65 460.417 476.666 464.117C474.68 467.817 473.126 471.466 473.213 472.226C473.3 472.986 468.222 482.441 461.93 493.239C455.637 504.035 447.258 516.853 443.313 521.722C439.368 526.59 428.421 537.362 418.99 545.66C409.559 553.956 394.314 564.862 385.111 569.895C375.909 574.928 360.049 581.983 349.868 585.574C339.686 589.166 320.24 594.003 306.655 596.321C293.069 598.641 270.031 601.204 255.459 602.017C240.887 602.833 209.912 604.281 186.628 605.237C163.344 606.193 134.234 608.126 121.94 609.533C109.645 610.938 87.8526 614.395 73.5093 617.215C59.1661 620.035 37.1056 625.324 24.4862 628.971C11.8666 632.616 -6.48074 638.33 -16.2829 641.664C-27.0345 645.322 -33.9807 648.837 -33.7881 650.524C-33.6127 652.062 -31.1767 652.95 -28.378 652.5C-25.5795 652.049 -18.8155 649.974 -13.3502 647.891ZM-11.0121 629.439C-3.14192 627.011 14.3223 622.334 27.797 619.043C41.2719 615.753 67.3539 610.656 85.7571 607.716C104.16 604.775 149.58 599.734 186.689 596.509C232.617 592.52 265.269 588.687 288.947 584.508C308.079 581.13 324.912 577.357 326.356 576.119C327.799 574.882 331.476 573.587 334.533 573.238C337.586 572.89 344.729 570.631 350.403 568.222C356.076 565.811 365.775 561.411 371.954 558.442C378.133 555.474 388.746 549.176 395.539 544.444C402.331 539.712 413.642 530.751 420.67 524.529C427.699 518.309 433.373 512.53 433.277 511.69C433.181 510.849 434.671 508.791 436.589 507.114C438.507 505.44 444.269 498.138 449.393 490.891C454.521 483.643 461.028 472.979 463.854 467.193C466.681 461.406 471.827 448.683 475.283 438.918C478.743 429.153 483.585 414.62 486.044 406.623C488.499 398.626 493.247 381.398 496.591 368.339C499.936 355.279 505.412 337.066 508.758 327.865C512.105 318.664 519.102 303.763 524.307 294.751C529.512 285.739 539.001 272.028 545.396 264.283C551.789 256.539 566.556 242.304 578.215 232.653C589.871 223.003 618.489 202.149 641.81 186.311C665.132 170.472 695.36 148.125 708.982 136.649C722.607 125.173 739.097 109.311 745.624 101.4C752.155 93.4893 762.14 79.5339 767.812 70.3881C773.488 61.2419 781.833 46.1008 786.358 36.7432C790.884 27.3855 798.921 5.00968 804.222 -12.9809C809.519 -30.9691 815.979 -55.097 818.574 -66.5955C821.502 -79.571 822.198 -88.3954 820.408 -89.8547C818.108 -91.7329 816.741 -91.3323 813.634 -87.873C811.491 -85.4878 809.926 -81.9139 810.153 -79.9293C810.379 -77.9448 809.229 -70.9947 807.596 -64.4866C805.959 -57.9782 802.651 -44.7608 800.241 -35.1155C797.828 -25.4698 792.362 -7.70889 788.095 4.3532C783.828 16.4153 779.099 29.1314 777.585 32.6113C776.075 36.0909 769.784 47.6323 763.611 58.2583C757.437 68.8843 746.953 84.5122 740.309 92.9872C733.668 101.462 720.793 115.384 711.701 123.926C702.609 132.468 683.301 147.808 668.791 158.015C654.284 168.223 634.962 181.394 625.858 187.285C616.754 193.177 605.612 200.686 601.099 203.973C596.586 207.26 581.237 219.96 566.993 232.194C552.747 244.427 536.948 259.778 531.88 266.305C526.816 272.834 519.347 284.415 515.282 292.045C511.22 299.674 505.278 311.626 502.081 318.606C498.884 325.585 494.135 338.203 491.532 346.646C488.931 355.088 484.113 373.226 480.83 386.952C477.544 400.678 472.272 418.968 469.115 427.596C465.955 436.225 460.676 449.003 457.383 455.994C454.092 462.984 447.595 475.394 442.95 483.571C438.304 491.748 428.864 504.092 421.976 511.001C415.086 517.911 407.664 525.44 405.482 527.732C403.299 530.023 394.207 536.356 385.274 541.807C376.345 547.258 361.238 555.071 351.704 559.17C342.173 563.27 324.01 569.27 311.343 572.503C298.676 575.735 276.492 579.938 262.044 581.844C247.596 583.747 203.451 588.272 163.943 591.897C104.58 597.346 85.6354 599.796 54.8019 606.015C34.2809 610.153 6.5162 616.497 -6.89489 620.112C-20.306 623.727 -32.489 627.719 -33.9652 628.984C-35.4441 630.251 -35.6567 632.153 -34.4425 633.213C-33.2254 634.273 -30.6767 634.85 -28.7765 634.497C-26.8763 634.144 -18.8823 631.866 -11.0121 629.439ZM-22.685 610.774C-21.7756 609.994 -12.877 607.155 -2.91279 604.462C7.05138 601.77 30.1406 596.096 48.3951 591.854C76.9125 585.226 95.871 582.505 183.028 572.526C263.005 563.37 288.612 559.794 304.049 555.627C314.818 552.723 331.91 546.986 342.033 542.882C352.156 538.778 366.043 531.96 372.893 527.731C379.743 523.504 392.195 513.123 400.568 504.663C408.938 496.206 418.96 483.403 422.841 476.213C426.719 469.022 431.675 459.643 433.853 455.37C436.032 451.097 437.7 446.609 437.562 445.398C437.424 444.187 438.474 441.498 439.896 439.421C441.318 437.345 446.76 420.783 451.99 402.616C457.219 384.447 461.27 367.577 460.99 365.128C460.71 362.677 461.735 359.97 463.266 359.114C464.798 358.257 465.867 355.943 465.642 353.97C465.416 351.995 467.815 342.981 470.97 333.938C474.126 324.893 482.193 306.043 488.9 292.049C495.605 278.055 502.154 266.184 503.455 265.669C504.756 265.151 505.715 263.791 505.584 262.642C505.453 261.494 511.972 253.204 520.072 244.22C528.171 235.236 541.116 222.835 548.837 216.662C556.558 210.488 567.779 201.931 573.775 197.645C579.768 193.357 595.891 183.007 609.602 174.639C623.312 166.274 643.821 153.228 655.177 145.65C666.532 138.071 682.996 125.763 691.763 118.298C700.531 110.834 713.697 97.702 721.022 89.1153C728.346 80.5305 735.732 71.5701 737.429 69.2037C739.129 66.8389 743.996 59.0939 748.248 51.9942C752.498 44.8948 759.433 31.0251 763.659 21.1725C767.885 11.3198 773.84 -4.69305 776.891 -14.4115C779.944 -24.1303 783.864 -37.6559 785.607 -44.4692C787.348 -51.2822 790.159 -63.152 791.849 -70.8472C793.542 -78.5427 794.062 -85.5912 793.006 -86.5129C791.95 -87.4346 789.915 -88.0542 788.482 -87.8907C787.052 -87.7275 784.394 -82.6899 782.578 -76.6941C780.765 -70.7006 777.546 -58.3814 775.425 -49.3202C773.307 -40.2593 770.113 -27.7185 768.331 -21.452C766.549 -15.1854 763.633 -5.71285 761.849 -0.400114C760.067 4.91229 754.528 17.7208 749.54 28.0632C744.556 38.4053 737.281 51.5563 733.376 57.2874C729.467 63.0189 726.324 68.16 726.387 68.714C726.451 69.268 720.193 76.9694 712.485 85.8283C704.773 94.6857 690.671 108.387 681.148 116.271C671.622 124.157 654.991 136.391 644.19 143.459C633.389 150.524 609.15 165.934 590.326 177.701C571.503 189.466 547.451 206.642 536.876 215.871C526.303 225.097 513.426 237.855 508.263 244.221C503.1 250.586 498.979 256.693 499.105 257.793C499.23 258.891 498.216 259.919 496.85 260.075C495.484 260.23 489.38 269.72 483.285 281.165C477.194 292.61 468.515 312.766 464.003 325.958C459.492 339.15 453.627 357.408 450.973 366.53C448.32 375.652 443.659 393.321 440.62 405.794C437.579 418.267 434.268 430.371 433.265 432.69C432.261 435.009 428.59 443.546 425.108 451.66C421.625 459.774 414.718 472.687 409.757 480.354C404.798 488.021 395.988 498.694 390.181 504.069C384.372 509.446 372.582 518.023 363.977 523.13C355.373 528.237 340.514 535.309 330.954 538.847C321.397 542.383 305.271 547.284 295.119 549.734C283.264 552.598 243.719 557.875 184.517 564.495C133.836 570.163 81.9417 576.881 69.1966 579.426C56.4512 581.969 36.2968 586.438 24.4087 589.354C12.5206 592.27 -5.58652 597.155 -15.8295 600.208C-26.0725 603.261 -35.9828 606.842 -37.8495 608.163C-39.7163 609.485 -40.4334 611.274 -39.4431 612.137C-38.4526 613.002 -34.6483 613.368 -30.9897 612.95C-27.3311 612.533 -23.5945 611.553 -22.685 610.774ZM-15.8768 586.815C-11.1278 585.152 51.0516 576.4 124.082 567.117C196.359 557.928 263.295 548.677 272.83 546.559C282.365 544.439 297.885 540.248 307.319 537.245C316.753 534.244 328.898 529.687 334.309 527.122C339.719 524.554 351.664 517.572 360.852 511.605C370.616 505.266 381.796 495.365 387.753 487.78C393.361 480.642 399.463 472.375 401.317 469.408C403.168 466.44 406.868 459.253 409.54 453.436C412.21 447.62 415.752 437.745 417.408 431.493C419.065 425.241 421.533 413.46 422.896 405.311C424.256 397.163 426.439 383.837 427.746 375.695C429.051 367.553 432.558 352.046 435.536 341.233C438.512 330.421 443.87 314.025 447.439 304.799C451.007 295.572 458.194 280.772 463.41 271.908C468.623 263.046 480.224 246.839 489.184 235.895C498.147 224.951 512.65 210.257 521.412 203.242C530.175 196.227 553.816 180 573.948 167.181C594.083 154.363 618.953 138.648 629.216 132.264C639.481 125.877 653.991 116.103 661.462 110.544C668.933 104.983 678.107 97.7511 681.848 94.472C685.588 91.1909 692.935 84.2533 698.175 79.0513C703.412 73.8497 712.892 61.5734 719.239 51.7693C725.586 41.9653 733.736 25.0385 737.35 14.1534C740.966 3.26798 745.227 -13.0025 746.816 -22.003C748.408 -31.0037 751.355 -47.3348 753.366 -58.2935C755.375 -69.25 756.866 -79.5682 756.678 -81.2203C756.489 -82.8705 754.449 -84.0065 752.144 -83.7435C749.84 -83.4805 747.459 -81.6294 746.851 -79.6319C746.244 -77.6324 743.564 -64.0236 740.894 -49.3879C738.224 -34.7521 735.376 -19.5449 734.565 -15.5939C733.757 -11.6433 731.653 -3.28565 729.891 2.97856C728.129 9.24278 724.124 20.7419 720.987 28.532C717.849 36.3202 711.428 48.3274 706.718 55.2147C702.008 62.1 685.397 78.6596 669.806 92.0141C654.215 105.369 633.966 120.75 624.811 126.194C615.656 131.639 600.701 140.785 591.579 146.521C582.457 152.254 573.683 157.877 572.08 159.014C570.477 160.153 566.593 162.362 563.445 163.926C560.299 165.488 552.308 170.673 545.689 175.445C539.07 180.22 528.303 188.027 521.763 192.794C515.221 197.563 502.024 209.436 492.434 219.179C482.845 228.922 468.954 246.292 461.564 257.778C454.173 269.265 444.805 285.741 440.746 294.39C436.688 303.041 431.037 319.019 428.187 329.897C425.337 340.777 421.92 355.665 420.595 362.982C419.271 370.298 417.055 383.178 415.673 391.604C414.291 400.03 410.687 416.159 407.662 427.448C404.639 438.737 399.267 453.781 395.722 460.88C392.177 467.979 387.076 476.294 384.386 479.357C381.699 482.42 373.217 490.515 365.541 497.346C356.346 505.529 344.723 512.879 331.476 518.888C320.417 523.907 301.23 531.011 288.838 534.676C268.64 540.653 253.17 543.004 139.268 557.409C67.448 566.493 1.54204 575.769 -12.3532 578.75C-25.8729 581.648 -38.4645 585.097 -40.3321 586.411C-42.1995 587.726 -42.9173 589.51 -41.927 590.373C-40.9366 591.238 -36.5912 591.464 -32.2735 590.877C-27.9558 590.29 -20.5772 588.461 -15.8768 586.815ZM-19.5796 567.35C-14.0611 565.732 2.76158 561.275 17.8039 557.441C32.8462 553.608 56.2803 548.673 69.8794 546.471C83.4787 544.272 104.57 542.171 116.749 541.803C128.928 541.436 154.86 540.863 174.375 540.53C204.509 540.017 213.564 539.142 234.446 534.723C247.97 531.862 266.114 527.3 274.767 524.587C283.419 521.874 291.737 518.83 293.252 517.823C294.766 516.814 299.218 514.937 303.145 513.649C307.072 512.363 316.535 507.67 324.174 503.22C331.814 498.77 343.159 490.967 349.386 485.881C355.611 480.793 365.374 470.475 371.081 462.953C376.788 455.431 385.161 440.589 389.691 429.972C394.221 419.353 399.737 402.793 401.948 393.17C404.159 383.548 407.056 367.884 408.384 358.362C409.708 348.841 412.03 335.046 413.536 327.709C415.042 320.372 417.313 309.74 418.581 304.083C419.846 298.427 421.964 292.818 423.285 291.621C424.606 290.422 425.551 288.243 425.384 286.775C425.217 285.309 430.579 274.28 437.299 262.265C444.019 250.252 451.011 238.522 452.841 236.201C454.667 233.878 462.932 225.719 471.208 218.07C479.48 210.419 489.136 201.572 492.665 198.41C496.191 195.247 508.331 186.129 519.641 178.146C530.951 170.164 550.131 157.16 562.264 149.247C574.397 141.336 584.93 134.338 585.672 133.696C586.413 133.054 593.194 128.219 600.74 122.95C608.285 117.68 617.488 111.218 621.19 108.59C624.893 105.961 636.791 96.1528 647.633 86.7938C658.474 77.4329 673.607 61.7255 681.26 51.8887C688.915 42.0496 698.106 27.8021 701.682 20.2284C705.259 12.6547 709.974 1.29316 712.157 -5.01912C714.34 -11.3314 717.552 -22.0705 719.299 -28.8842C721.042 -35.6975 723.83 -47.3483 725.498 -54.7743C727.166 -62.2003 728.196 -71.1871 727.79 -74.7446C727.302 -79.0262 725.846 -80.8023 723.488 -79.998C721.526 -79.3291 718.406 -71.9077 716.553 -63.5065C714.7 -55.1033 711.713 -41.7481 709.915 -33.8262C708.114 -25.904 704.145 -12.3727 701.093 -3.75645C698.038 4.86009 691.112 19.6309 685.698 29.0679C680.286 38.5046 671.29 51.2568 665.708 57.4058C660.123 63.5551 649.141 74.279 641.302 81.2368C633.462 88.1946 621.843 97.8989 615.478 102.802C609.117 107.705 595.545 117.278 585.317 124.073C575.092 130.868 556.205 143.535 543.346 152.22C530.487 160.905 512.008 173.932 502.284 181.169C492.558 188.406 479.296 198.991 472.813 204.692C466.329 210.393 454.802 222.081 447.194 230.666C439.585 239.251 431.119 250.139 428.375 254.861C425.634 259.584 419.761 273.332 415.327 285.413C410.894 297.495 406.277 312.002 405.067 317.652C403.858 323.302 399.712 344.971 395.854 365.805C391.995 386.64 387.758 407.868 386.436 412.98C385.115 418.092 379.866 429.965 374.774 439.365C369.684 448.765 360.207 462.55 353.719 469.999C346.661 478.097 335.077 487.623 324.901 493.697C315.539 499.281 297.578 507.833 284.982 512.702C268.905 518.916 252.821 523.279 230.98 527.349C203.302 532.508 195.161 533.207 157.078 533.691C133.538 533.99 101.146 535.741 85.0971 537.581C69.0478 539.419 41.5439 544.283 23.9759 548.389C6.41083 552.494 -13.6776 557.541 -20.6652 559.603C-27.6498 561.665 -35.6206 564.068 -38.371 564.941C-41.1214 565.814 -43.2288 567.804 -43.0509 569.363C-42.859 571.045 -40.0579 571.81 -36.1701 571.246C-32.5653 570.72 -25.098 568.968 -19.5796 567.35ZM-30.5833 548.811C-26.6628 547.47 -7.16664 543.074 12.7414 539.042C32.6494 535.01 79.8087 527.69 117.54 522.774C155.271 517.857 199.198 511.422 215.156 508.474C231.114 505.525 251.251 500.904 259.905 498.206C268.559 495.507 282.62 490.212 291.151 486.438C299.683 482.665 311.613 476.224 317.663 472.124C323.713 468.024 332.667 461.057 337.561 456.64C342.455 452.224 349.837 444.526 353.963 439.536C358.089 434.543 364.261 425.104 367.676 418.556C371.092 412.009 373.748 405.437 373.579 403.953C373.41 402.469 374.353 400.272 375.674 399.075C376.995 397.876 379.11 392.269 380.375 386.613C381.641 380.957 383.902 369.875 385.401 361.987C386.898 354.1 389.911 334.815 392.097 319.132C394.28 303.449 398.06 283.636 400.493 275.102C402.926 266.569 408.177 253.422 412.164 245.886C416.148 238.35 425.609 224.082 433.186 214.177C440.763 204.275 454.648 189.185 464.042 180.643C473.436 172.1 491.034 158.519 503.15 150.46C515.266 142.403 525.78 135.238 526.515 134.538C527.25 133.841 530.361 131.895 533.428 130.214C536.495 128.533 544.655 124.1 551.561 120.361C558.467 116.625 572.903 107.816 583.643 100.785C594.38 93.7554 610.679 82.0118 619.863 74.6881C629.044 67.3647 640.568 56.7133 645.469 51.0167C650.371 45.3201 657.718 35.3178 661.793 28.7896C665.871 22.2611 672.288 8.45035 676.057 -1.90131C679.823 -12.2526 684.16 -27.6298 685.693 -36.0727C687.224 -44.5154 689.273 -55.9554 690.246 -61.4962C691.219 -67.0371 691.213 -72.6746 690.23 -74.0215C689.249 -75.3708 687.243 -76.3364 685.772 -76.1685C684.301 -76.0006 682.195 -73.732 681.095 -71.125C679.994 -68.5179 677.81 -57.6717 676.243 -47.0203C674.674 -36.3685 671.497 -20.6727 669.185 -12.1409C666.874 -3.60918 661.397 10.2105 657.015 18.5696C652.633 26.9287 644.318 39.2103 638.532 45.8635C632.747 52.5168 619.633 64.5984 609.39 72.7105C599.146 80.8246 578.289 94.9705 563.042 104.147C547.795 113.323 525.377 126.827 513.223 134.157C501.071 141.485 480.595 156.201 467.721 166.856C454.847 177.513 438.863 192.54 432.201 200.251C425.538 207.963 414.028 224.76 406.624 237.577C399.22 250.396 391.168 267.877 388.728 276.423C386.29 284.969 383.248 300.65 381.965 311.269C380.685 321.888 378.692 338.35 377.537 347.852C376.382 357.354 374.196 370.682 372.681 377.47C371.162 384.257 366.924 396.466 363.257 404.601C359.591 412.737 353.784 423.772 350.351 429.124C346.918 434.477 340.555 442.711 336.21 447.422C331.865 452.133 321.563 460.38 313.315 465.749C305.069 471.118 291.75 478.313 283.715 481.737C275.68 485.161 260.71 490.331 250.449 493.224C240.188 496.119 221.32 500.185 208.522 502.263C195.723 504.339 164.247 508.901 138.576 512.4C112.904 515.899 74.9764 521.25 54.2947 524.292C33.6101 527.334 2.91743 532.917 -13.911 536.702C-40.0404 542.578 -44.4506 544.12 -44.0929 547.254C-43.8623 549.274 -42.3322 551 -40.6928 551.087C-39.0531 551.177 -34.5041 550.15 -30.5833 548.811ZM-14.9676 529.884C-4.66954 527.313 14.1756 523.054 26.9101 520.416C39.6447 517.778 75.0131 512.278 105.506 508.193C136 504.107 171.366 498.592 184.099 495.938C196.832 493.282 215.791 488.387 226.233 485.058C236.676 481.73 252.573 475.003 261.56 470.109C270.547 465.215 284.406 455.786 292.35 449.155C300.298 442.525 311.305 431.522 316.807 424.703C322.31 417.883 331.102 404.253 336.346 394.412C341.59 384.572 347.971 370.418 350.524 362.961C353.077 355.504 356.581 343.379 358.312 336.016C360.044 328.653 362.168 318.038 363.036 312.427C363.903 306.816 365.467 297.618 366.507 291.987C367.55 286.356 369.986 276.608 371.924 270.324C373.858 264.04 377.802 252.724 380.682 245.18C383.563 237.633 389.476 224.782 393.827 216.621C398.175 208.458 405.987 197.236 411.186 191.682C416.386 186.128 427.387 175.853 435.629 168.849C443.875 161.845 459.92 150.288 471.287 143.17C482.654 136.051 512.568 118.117 537.765 103.318C562.962 88.518 591.871 69.8032 602.009 61.7292C612.145 53.6555 625.539 40.9405 631.771 33.4747C638.002 26.0088 646.49 13.5153 650.63 5.71292C654.773 -2.0898 659.034 -12.0467 660.103 -16.4139C661.172 -20.781 663.96 -31.6522 666.296 -40.5695C668.632 -49.4888 670.463 -60.5212 670.36 -65.0854C670.225 -71.099 669.051 -73.258 666.094 -72.9206C663.284 -72.5998 660.939 -66.4074 658.553 -53.0187C656.651 -42.3289 652.593 -26.5326 649.539 -17.9161C646.484 -9.29952 640.407 3.90914 636.037 11.4351C631.664 18.9634 621.476 31.8376 613.394 40.0457C605.313 48.2538 591.343 60.1866 582.35 66.5645C573.357 72.9404 556.006 84.0325 543.79 91.2112C531.574 98.392 510.324 110.783 496.568 118.747C482.812 126.712 464.12 138.154 455.03 144.172C445.94 150.19 431.728 160.988 423.449 168.167C415.17 175.345 403.702 187.11 397.965 194.313C392.228 201.516 385.295 211.273 382.56 215.995C379.825 220.716 375.025 231.637 371.894 240.262C368.76 248.887 364.718 261.074 362.909 267.344C361.101 273.613 357.732 287.527 355.426 298.263C353.117 308.999 349.012 327.056 346.3 338.389C343.591 349.722 338.868 365.729 335.804 373.959C332.741 382.19 327.579 393.236 324.329 398.506C321.079 403.777 315.237 412.427 311.345 417.728C307.453 423.03 301.485 430.214 298.087 433.69C294.685 437.167 285.439 444.797 277.541 450.645C269.644 456.493 256.282 464.385 247.855 468.183C239.424 471.984 224.055 477.68 213.703 480.842C203.351 484.006 175.908 489.715 152.717 493.531C129.525 497.344 92.1821 503.067 69.7324 506.245C47.2829 509.424 12.6748 515.745 -7.17401 520.295C-27.0231 524.844 -44.202 529.087 -45.353 529.724C-46.5039 530.36 -47.2964 532.164 -47.1173 533.733C-46.9215 535.449 -44.1835 536.18 -40.2417 535.57C-36.6408 535.011 -25.2659 532.452 -14.9676 529.884ZM-3.60531 512.626C7.49252 509.925 39.4376 503.633 67.3838 498.646C95.3302 493.66 129.276 487.375 142.819 484.681C156.361 481.985 177.606 476.844 190.034 473.255C202.459 469.668 220.388 463.225 229.877 458.939C239.363 454.653 254.172 446.255 262.783 440.275C271.391 434.296 282.888 423.689 288.324 416.705C293.761 409.723 300.66 399.439 303.655 393.856C306.647 388.273 311.884 374.146 315.288 362.463C318.695 350.78 322.004 338.005 322.64 334.074C323.275 330.143 324.665 324.122 325.726 320.694C326.786 317.266 329.664 307.467 332.125 298.918C334.583 290.369 340.623 271.853 345.546 257.772C350.465 243.69 358.499 225.636 363.394 217.653C368.287 209.668 377.791 196.195 384.511 187.711C391.228 179.228 402.692 167.533 409.983 161.724C417.272 155.915 428.831 147.206 435.665 142.371C442.502 137.536 471.263 120.873 499.579 105.339C527.898 89.8039 559.851 71.2829 570.592 64.1803C581.33 57.0761 596.277 45.4248 603.811 38.2873C611.342 31.1482 621.661 19.3414 626.742 12.045C631.823 4.75056 638.767 -9.67958 642.179 -20.0245C645.591 -30.3674 649.275 -45.0168 650.37 -52.5799C651.465 -60.143 651.382 -67.6777 650.184 -69.3209C648.484 -71.6543 647.166 -71.7024 644.171 -69.5407C642.061 -68.019 639.993 -62.0446 639.575 -56.2644C639.156 -50.4842 636.937 -38.7761 634.64 -30.246C632.342 -21.716 626.113 -6.8102 620.798 2.87601C613.781 15.6628 606.166 24.8379 593.013 36.3507C583.044 45.0729 568.062 56.6242 559.716 62.0203C551.369 67.4165 533.45 77.9218 519.893 85.3699C506.336 92.816 487.108 103.174 477.162 108.388C467.213 113.602 450.152 123.653 439.245 130.725C428.335 137.796 412.834 148.855 404.794 155.301C396.755 161.747 385.669 172.182 380.155 178.491C374.645 184.8 366.533 195.648 362.126 202.597C357.723 209.545 351.1 220.537 347.41 227.021C343.724 233.505 337.709 247.721 334.046 258.612C330.383 269.503 326.341 282.14 325.066 286.695C323.793 291.25 321.758 298.698 320.544 303.246C319.33 307.794 315.102 323.842 311.148 338.907C307.197 353.974 301.296 373.137 298.04 381.492C294.784 389.849 289.763 400.111 286.887 404.298C284.008 408.485 277.616 416.2 272.68 421.443C267.747 426.686 257.868 434.56 250.733 438.938C243.595 443.317 233.332 449.032 227.927 451.637C222.521 454.242 207.814 459.713 195.244 463.793C182.674 467.874 156.093 474.443 136.176 478.392C116.258 482.338 87.5171 487.503 72.3071 489.866C57.097 492.229 34.229 496.284 21.4895 498.879C8.74994 501.473 -12.3695 506.235 -25.4457 509.461C-41.4727 513.414 -49.1173 516.209 -48.9085 518.039C-48.6908 519.947 -44.8964 520.277 -36.1906 519.149C-29.3679 518.264 -14.7029 515.33 -3.60531 512.626ZM44.0698 489.058C71.2591 484.578 104.229 478.256 117.335 475.006C130.444 471.758 148.568 466.549 157.612 463.428C166.656 460.307 180.438 454.72 188.239 451.009C196.04 447.301 208.513 440.245 215.957 435.333C223.402 430.42 233.523 422.667 238.453 418.104C243.384 413.538 250.923 405.514 255.207 400.271C259.489 395.03 265.979 384.819 269.629 377.579C273.28 370.342 277.905 358.822 279.912 351.979C281.916 345.136 284.489 336.274 285.631 332.285C286.772 328.296 290.205 311.669 293.258 295.336C296.312 279.003 300.219 260.067 301.936 253.257C303.653 246.447 306.665 236.232 308.627 230.558C310.587 224.884 315.498 214.853 319.54 208.267C323.578 201.68 332.202 189.917 338.702 182.128C345.202 174.337 358.726 161.046 368.759 152.591C379.264 143.739 398.03 131.307 413.005 123.279C427.304 115.61 448.048 105.505 459.101 100.825C470.153 96.1417 487.964 88.2743 498.683 83.3409C509.399 78.4079 518.771 73.8227 519.509 73.1532C520.247 72.4817 523.356 70.5174 526.418 68.789C529.479 67.0586 534.87 64.429 538.398 62.946C541.924 61.4633 551.784 54.2528 560.306 46.9223C568.828 39.5899 578.685 30.5859 582.215 26.908C585.742 23.2324 592.878 12.9474 598.076 4.05223C603.27 -4.84062 609.088 -17.258 611.002 -23.5396C612.913 -29.8208 615.77 -39.886 617.346 -45.9085C618.925 -51.9294 619.906 -59.5576 619.529 -62.8599C619.087 -66.7339 617.599 -68.4302 615.337 -67.6408C613.407 -66.9697 611.09 -62.7967 610.185 -58.3681C609.28 -53.9394 606.661 -43.7892 604.366 -35.8105C602.068 -27.8316 598.541 -17.9585 596.522 -13.8697C594.506 -9.78121 589.885 -1.36275 586.259 4.83968C582.629 11.0405 575.857 20.5763 571.209 26.0294C566.561 31.4826 554.835 41.632 545.152 48.5837C535.467 55.5358 522.141 63.8993 515.541 67.1721C508.937 70.4452 486.321 80.6209 465.28 89.7829C444.239 98.9449 415.991 112.577 402.507 120.073C388.032 128.121 369.613 140.948 357.544 151.388C346.303 161.113 332.577 174.954 327.046 182.147C321.515 189.341 312.731 202.971 307.528 212.436C302.327 221.9 295.949 236.492 293.355 244.86C290.761 253.228 287.443 266.684 285.984 274.764C284.521 282.844 282.208 296.347 280.84 304.771C279.473 313.195 277.484 324.71 276.423 330.361C275.364 336.012 271.499 348.407 267.837 357.905C264.175 367.403 256.925 381.705 251.727 389.69C246.53 397.674 235.184 410.04 226.515 417.173C217.845 424.306 204.02 433.843 195.793 438.368C187.564 442.893 170.033 450.411 156.837 455.076C143.637 459.744 121.693 466.285 108.072 469.615C94.4472 472.944 59.2163 479.31 29.7749 483.76C0.336395 488.211 -29.9441 493.097 -37.5089 494.618C-46.5799 496.441 -51.1575 498.333 -50.9482 500.167C-50.6998 502.343 -45.6984 502.322 -27.9982 500.075C-15.549 498.494 16.8801 493.536 44.0698 489.058ZM52.6082 460.037C71.7498 456.429 95.9285 451.086 106.337 448.162C116.746 445.239 130.246 440.872 136.338 438.461C142.429 436.048 154.325 430.866 162.774 426.943C171.837 422.738 186.498 412.677 198.527 402.404C213.18 389.895 221.236 380.785 227.16 370.026C231.695 361.791 236.349 353.142 237.504 350.806C238.659 348.469 242.042 339.451 245.023 330.762C248.001 322.074 253.341 298.613 256.884 278.626C260.431 258.639 264.927 237.447 266.873 231.531C268.82 225.616 274.333 213.564 279.128 204.749C283.92 195.934 292.677 182.308 298.588 174.468C304.498 166.627 318.904 151.789 330.596 141.495C342.29 131.199 358.096 119.023 365.72 114.436C373.343 109.848 380.175 105.459 380.901 104.68C381.626 103.902 393.131 97.9852 406.464 91.5328C419.8 85.0821 433.104 78.9997 436.029 78.0185C438.957 77.035 453.853 71.6409 469.134 66.0305C484.418 60.4178 503.515 52.548 511.572 48.5418C519.632 44.5332 534.12 34.4915 543.774 26.2242C553.425 17.9573 564.876 5.37589 569.22 -1.73416C573.563 -8.84422 579.654 -22.1667 582.752 -31.3393C585.852 -40.5123 588.365 -51.6225 588.336 -56.0288C588.3 -61.7972 587.155 -63.9114 584.239 -63.5786C581.546 -63.2712 578.666 -56.5688 575.639 -43.5559C573.134 -32.7973 568.507 -19.1387 565.36 -13.2054C562.209 -7.27178 555.243 2.66304 549.881 8.87111C544.516 15.0795 535.274 23.9432 529.344 28.5686C523.41 33.1944 512.503 39.8529 505.106 43.3669C497.71 46.8808 479.487 54.1037 464.614 59.417C449.741 64.7323 426.807 73.8737 413.65 79.7329C400.492 85.592 383.083 94.2072 374.968 98.8755C366.85 103.546 355.661 110.8 350.099 114.994C344.54 119.191 333.276 128.353 325.069 135.359C316.862 142.363 306.201 152.349 301.373 157.548C296.548 162.746 289.471 171.221 285.649 176.379C281.826 181.538 276.715 189.14 274.296 193.275C271.873 197.41 266.785 207.912 262.987 216.613C259.19 225.314 254.182 239.866 251.859 248.95C249.536 258.035 246.546 272.356 245.211 280.776C243.879 289.196 242.002 300.685 241.038 306.307C240.077 311.929 237.745 321.665 235.861 327.943C233.976 334.222 231.495 341.27 230.345 343.606C229.196 345.941 225.886 352.633 222.988 358.476C220.094 364.318 214.134 373.567 209.748 379.028C205.358 384.49 197.577 392.84 192.457 397.585C187.334 402.331 176.815 409.941 169.078 414.498C161.341 419.053 146.718 426.046 136.582 430.035C126.446 434.024 109.751 439.601 99.4819 442.427C89.2129 445.252 65.1228 450.28 45.9482 453.599C26.7735 456.918 -3.65507 461.908 -21.6675 464.689C-46.7779 468.565 -54.3469 470.387 -54.1062 472.496C-53.8535 474.71 -46.7844 474.401 -17.9937 470.921C1.69406 468.541 33.4662 463.642 52.6082 460.037ZM20.5549 438.773C75.4807 431.568 90.2738 429.004 101.899 424.669C109.714 421.754 124.581 415.245 134.941 410.205C145.298 405.164 160.074 395.677 167.776 389.124C175.477 382.57 185.451 372.28 189.942 366.256C194.431 360.232 200.309 350.09 203.007 343.719C205.705 337.348 209.355 327.461 211.121 321.747C212.886 316.034 216.262 302.57 218.62 291.829C220.982 281.086 225.434 265.245 228.515 256.625C231.596 248.006 239.6 229.955 246.302 216.513C253.001 203.071 267.215 180.764 277.888 166.941C289.015 152.53 306.578 133.761 319.063 122.94C331.038 112.562 348.28 99.2134 357.379 93.2744C366.478 87.3373 385.963 77.0059 400.68 70.3155C415.396 63.6251 433.827 55.7371 441.637 52.7872C449.448 49.8373 465.769 42.8515 477.906 37.2632C490.533 31.4467 506.214 22.0245 514.561 15.2332C522.585 8.70722 532.668 -1.30273 536.967 -7.01266C541.264 -12.7203 547.334 -24.1143 550.455 -32.3296C553.577 -40.5448 555.765 -50.4735 555.317 -54.395C554.803 -58.8963 553.293 -61.099 551.219 -60.3753C549.412 -59.7462 545.745 -52.1621 543.066 -43.5243C540.39 -34.8848 535.258 -22.5897 531.658 -16.202C528.062 -9.81455 520.698 -0.586008 515.296 4.30584C509.893 9.1957 498.202 17.419 489.316 22.5761C480.43 27.7332 458.859 37.7293 441.38 44.7932C423.903 51.8547 400.28 61.983 388.885 67.2982C377.493 72.6131 358.515 83.3676 346.714 91.2004C334.913 99.0313 316.603 113.382 306.026 123.089C295.452 132.794 280.468 148.793 272.734 158.64C264.996 168.486 253.001 185.834 246.079 197.189C239.153 208.542 230.691 225.174 227.271 234.146C223.854 243.121 220.222 251.609 219.206 253.012C218.187 254.415 214.197 267.949 210.338 283.087C206.478 298.225 201.946 315.729 200.263 321.984C198.58 328.24 196.432 335.249 195.49 337.562C194.548 339.874 191.621 346.053 188.99 351.292C186.359 356.531 180.191 365.282 175.286 370.741C170.38 376.199 161.513 384.268 155.583 388.669C149.651 393.072 135.606 401.155 124.368 406.633C113.134 412.112 95.4678 419.041 85.1141 422.033C70.6101 426.221 52.0132 429.099 4.11501 434.566C-53.3699 441.127 -57.9552 441.913 -56.6884 444.991C-55.9344 446.821 -53.3502 448.152 -50.9501 447.948C-48.5467 447.746 -16.3697 443.616 20.5549 438.773ZM77.4812 405.408C87.6618 401.809 103.847 394.959 113.449 390.183C123.051 385.409 138.731 374.983 148.291 367.015C157.852 359.047 168.643 348.517 172.27 343.615C175.899 338.711 181.916 326.405 185.644 316.263C189.369 306.123 194.487 285.864 197.014 271.245C199.543 256.625 202.959 239.098 204.609 232.295C206.259 225.493 209.839 214.261 212.565 207.335C215.291 200.41 222.556 187.404 228.704 178.435C234.856 169.465 245.656 155.51 252.703 147.424C259.753 139.338 274.984 124.96 286.549 115.475C298.116 105.987 316.324 93.0774 327.012 86.7846C337.7 80.4918 357.733 69.8734 371.529 63.1898C385.324 56.5063 397.654 50.918 398.932 50.7722C400.207 50.6266 411.112 46.105 423.16 40.7233C435.211 35.3412 451.325 27.3428 458.971 22.9486C466.616 18.5544 478.939 9.71192 486.354 3.29955C493.77 -3.11282 502.877 -13.5505 506.587 -19.8969C510.301 -26.2435 514.872 -35.6685 516.747 -40.8432C518.618 -46.0175 519.984 -51.8858 519.779 -53.8828C519.575 -55.8819 517.899 -56.9894 516.05 -56.3454C514.204 -55.7018 511.913 -53.7868 510.957 -52.0882C510.004 -50.392 506.827 -43.3189 503.901 -36.3707C500.973 -29.4222 495.404 -19.767 491.519 -14.9141C487.635 -10.0613 480.147 -2.31175 474.88 2.30815C469.612 6.92607 457.855 14.808 448.757 19.821C439.659 24.8339 431.43 29.0242 430.468 29.134C429.509 29.2434 418.862 33.7417 406.814 39.1274C394.763 44.5134 376.029 52.911 365.179 57.7872C354.33 62.6633 341.689 68.716 337.088 71.2374C332.488 73.7588 318.643 82.5805 306.325 90.8412C294.004 99.1022 273.88 115.183 261.603 126.58C249.323 137.975 235.872 151.941 231.711 157.615C227.548 163.289 219.379 175.843 213.552 185.511C207.726 195.18 200.339 210.454 197.135 219.455C193.935 228.455 190.56 240.864 189.644 247.031C188.724 253.2 186.905 265.583 185.603 274.551C184.298 283.519 182.235 295.48 181.02 301.131C179.801 306.782 174.585 319.119 169.421 328.549C163.986 338.477 154.576 350.613 147.053 357.389C139.913 363.822 126.573 373.484 117.41 378.863C108.247 384.242 95.6559 390.732 89.4299 393.289C83.2037 395.843 68.12 400.457 55.913 403.538C41.5492 407.164 17.1634 411.029 -13.1993 414.494C-52.9526 419.031 -60.0631 420.302 -59.7761 422.817C-59.4855 425.363 -51.0142 424.801 -0.233137 418.869C52.8048 412.672 60.8989 411.271 77.4812 405.408ZM-1.52708 401.042C19.1524 396.631 47.0938 390.304 60.5646 386.978C74.0355 383.653 91.0752 377.904 98.4323 374.2C105.79 370.498 117.3 362.456 124.013 356.328C130.726 350.201 139.863 338.176 144.315 329.604C148.767 321.033 154.259 306.231 156.521 296.713C158.782 287.193 162.778 268.626 165.399 255.453C168.022 242.277 173.685 222.69 177.985 211.925C182.284 201.158 190.859 183.205 197.04 172.027C203.224 160.848 212.969 145.643 218.698 138.239C224.424 130.835 236.981 117.524 246.599 108.659C256.217 99.7949 272.439 87.1141 282.65 80.479C292.86 73.8458 308.623 64.769 317.674 60.3106C326.726 55.8521 352.158 45.0645 374.191 36.3365C396.224 27.6105 421.425 16.5586 430.193 11.7776C438.962 6.99666 450.231 -0.985898 455.233 -5.95834C460.238 -10.9331 467.767 -21.0706 471.969 -28.4871C476.168 -35.9034 479.723 -44.0598 479.867 -46.6118C480.011 -49.1657 478.575 -51.4471 476.678 -51.6816C474.776 -51.9175 471.369 -47.5802 469.086 -42.0161C466.81 -36.4669 461.47 -27.4693 457.221 -22.0236C452.972 -16.5779 444.937 -8.43319 439.366 -3.927C433.792 0.58151 421.123 8.07256 411.21 12.7215C401.294 17.3688 381.12 25.6401 366.374 31.1014C351.63 36.5623 333.889 43.8583 326.951 47.3159C320.013 50.7716 305.051 58.6325 293.704 64.7801C282.357 70.9296 263.023 84.142 250.737 94.1408C238.354 104.221 221.19 121.343 212.214 132.565C203.312 143.701 191.213 161.543 185.327 172.217C179.44 182.888 174.725 192.634 174.846 193.873C174.966 195.11 173.39 198.898 171.342 202.291C169.296 205.681 167.771 209.836 167.952 211.525C168.135 213.212 167.243 215.568 165.969 216.762C164.698 217.953 161.209 227.778 158.218 238.592C155.228 249.406 151.869 263.769 150.755 270.511C149.637 277.253 147.807 287.987 146.684 294.366C145.56 300.744 143.732 306.741 142.617 307.69C141.502 308.641 140.765 310.932 140.976 312.78C141.187 314.63 137.481 322.866 132.743 331.085C128.002 339.305 119.65 349.971 114.182 354.787C108.712 359.604 97.7911 366.296 89.9093 369.661C82.0274 373.024 62.5902 378.768 46.713 382.424C30.8355 386.078 10.6989 390.703 1.96485 392.7C-6.76922 394.697 -21.7502 397.77 -31.3262 399.528C-40.9023 401.287 -51.6523 403.479 -55.2119 404.401C-58.7718 405.32 -61.5363 407.394 -61.3525 409.004C-61.1129 411.103 -57.9154 411.526 -50.0722 410.497C-44.0533 409.708 -22.2066 405.452 -1.52708 401.042ZM-4.47609 388.182C10.6265 384.877 32.9478 378.731 45.124 374.524C57.3004 370.318 74.5904 362.504 83.5442 357.163C92.4978 351.82 103.21 343.688 107.351 339.09C111.493 334.495 117.26 326.852 120.167 322.11C123.075 317.367 134.152 288.14 144.778 257.163C155.407 226.185 166.276 195.18 168.929 188.263C171.585 181.346 177.539 168.49 182.164 159.694C186.79 150.898 195.517 137.164 201.562 129.177C207.609 121.187 220.228 107.672 229.607 99.144C238.987 90.6132 255.644 77.7725 266.624 70.6086C277.606 63.4424 287.286 57.5012 288.137 57.4041C288.988 57.3069 294.356 54.5797 300.066 51.3444C305.773 48.1095 325.537 38.1392 343.98 29.1894C362.423 20.2377 385.688 7.98369 395.681 1.95668C405.673 -4.07232 417.513 -11.9297 421.993 -15.5076C426.473 -19.0855 434.606 -26.6582 440.07 -32.3347C445.531 -38.0129 449.834 -44.1242 449.63 -45.9168C449.425 -47.7094 447.459 -48.9703 445.26 -48.7193C443.061 -48.4683 438.344 -44.5486 434.78 -40.0069C431.216 -35.4672 425.429 -29.1404 421.918 -25.9517C418.409 -22.7613 408.715 -15.6799 400.377 -10.2145C392.039 -4.7471 378.917 2.9319 371.217 6.85127C363.517 10.7706 345.229 19.9091 330.576 27.1614C315.924 34.4118 297.995 43.3469 290.731 47.0141C283.471 50.6828 266.978 61.0135 254.079 69.9718C241.183 78.9319 223.518 93.2967 214.823 101.894C206.128 110.492 194.944 122.951 189.968 129.58C184.995 136.209 177.586 147.876 173.507 155.505C169.424 163.136 166.152 169.95 166.231 170.646C166.311 171.343 164.76 174.941 162.785 178.64C160.808 182.339 153.253 202.279 145.993 222.95C138.735 243.622 131.137 266.136 129.11 272.981C127.083 279.827 123.396 290.62 120.918 296.966C118.44 303.312 113.686 313.574 110.355 319.771C107.024 325.965 98.986 335.467 92.4939 340.884C85.9989 346.302 72.6643 354.558 62.8609 359.231C53.0575 363.903 39.2257 369.386 32.1247 371.415C25.024 373.446 0.969063 378.679 -21.3271 383.046C-55.3654 389.713 -61.9629 391.56 -62.45 394.56C-62.945 397.621 -60.7945 397.85 -47.4805 396.163C-38.9296 395.078 -19.5787 391.487 -4.47609 388.182ZM-5.5822 365.511C8.67233 361.914 27.7099 355.81 36.7226 351.946C45.7356 348.083 59.0428 340.832 66.291 335.835C73.5421 330.839 83.1042 322.728 87.544 317.812C91.9839 312.896 98.4886 303.904 101.999 297.831C105.513 291.757 110.308 280.838 112.657 273.564C115.006 266.291 120.208 246.438 124.221 229.444C128.233 212.45 133.019 194.316 134.859 189.145C136.695 183.975 143.093 169.715 149.077 157.457C155.061 145.199 165.014 128.491 171.195 120.326C177.377 112.162 186.263 101.896 190.942 97.5136C195.62 93.1293 205.993 85.1148 213.996 79.7016C222 74.2884 251.046 59.1538 278.542 46.0702C306.041 32.9882 336 17.577 345.121 11.8239C354.241 6.07083 366.014 -2.62878 371.284 -7.51154C376.551 -12.394 384.596 -20.7662 389.158 -26.1174C393.72 -31.4685 397.263 -37.495 397.034 -39.5072C396.804 -41.5214 395.37 -43.0254 393.846 -42.8515C392.326 -42.6779 386.826 -37.0795 381.626 -30.4129C376.429 -23.7446 364.885 -12.5958 355.977 -5.6382C347.065 1.31973 330.104 12.1167 318.287 18.354C306.466 24.5916 286.917 34.1286 274.847 39.5469C262.773 44.9656 251.983 49.5042 250.868 49.6314C249.751 49.7589 253.182 47.2407 258.489 44.0334C263.797 40.828 271.031 37.2364 274.56 36.0519C278.09 34.8674 280.886 33.0691 280.77 32.0541C280.654 31.0391 282.203 30.0185 284.215 29.7869C286.223 29.5556 296.615 24.2187 307.303 17.9299C317.992 11.641 327.326 5.81736 328.046 4.99153C328.767 4.16569 334.754 -0.193589 341.354 -4.69293C347.954 -9.19425 357.968 -17.8354 363.604 -23.8965C369.244 -29.9578 373.713 -36.1722 373.538 -37.7076C373.363 -39.241 371.424 -40.2925 369.23 -40.0421C367.037 -39.7918 362.022 -35.6356 358.087 -30.8071C354.153 -25.9786 345.11 -17.3401 337.993 -11.6112C330.876 -5.88026 316.464 3.73781 305.968 9.76418C295.472 15.7906 271.785 28.6059 253.331 38.2443C234.878 47.8807 207.281 63.0644 192.004 71.9814C176.727 80.9005 156.2 95.161 146.387 103.673C135.195 113.381 125.713 124.244 120.939 132.826C116.752 140.349 111.115 151.676 108.411 157.997C105.705 164.319 102.044 174.659 100.276 180.974C98.5056 187.289 95.7483 198.018 94.1509 204.815C92.5506 211.612 90.0049 222.275 88.4946 228.51C86.9813 234.746 84.6653 243.579 83.3431 248.139C82.0208 252.7 80.0219 258.34 78.9045 260.672C77.7842 263.005 72.6587 272.609 67.5136 282.016C60.663 294.545 53.4317 303.141 40.4721 314.165C29.1032 323.836 17.2429 331.538 7.27099 335.72C-1.25881 339.3 -10.4334 343.279 -13.1163 344.561C-15.7993 345.844 -20.0579 347.129 -22.576 347.417C-25.094 347.704 -36.1403 350.39 -47.1187 353.385C-60.3123 356.985 -66.97 359.783 -66.7582 361.639C-66.5482 363.479 -63.2177 364.081 -57.12 363.385C-51.9933 362.8 -38.0604 359.318 -26.1546 355.648C-14.2489 351.978 3.73608 345.27 13.8108 340.743C26.0639 335.235 37.9733 327.47 49.7789 317.29C61.8598 306.873 70.2938 296.977 76.5056 285.938C81.4952 277.065 87.7067 264.179 90.3055 257.304C92.9039 250.428 99.5265 227.151 105.022 205.578C110.521 184.006 116.666 162.108 118.681 156.917C120.696 151.727 127.026 140.632 132.748 132.262C138.471 123.892 145.693 114.614 148.796 111.642C151.897 108.672 162.465 100.655 172.277 93.8292C182.09 87.0029 194.656 78.9164 200.202 75.8582C205.749 72.7999 211.237 70.1892 212.398 70.0567C213.559 69.9242 208.386 74.0462 200.906 79.2173C193.422 84.3867 183.115 93.0051 177.998 98.3676C172.883 103.73 162.491 117.393 154.909 128.731C147.324 140.069 137.69 156.953 133.499 166.248C129.31 175.545 125.045 186.405 124.026 190.379C123.007 194.356 120.792 202.726 119.11 208.981C117.424 215.237 113.758 229.636 110.958 240.979C108.161 252.322 103.135 269.131 99.7889 278.332C96.4454 287.533 89.9959 299.994 85.458 306.024C80.9201 312.054 71.8191 321.246 65.2318 326.452C58.6444 331.657 47.5459 338.454 40.5674 341.555C33.5888 344.657 21.4546 349.311 13.6027 351.898C5.75058 354.484 -11.0778 358.892 -23.7938 361.692C-36.5099 364.493 -50.7045 367.81 -55.3402 369.063C-59.9758 370.318 -64.1734 372.476 -64.6673 373.859C-65.3077 375.646 -60.63 375.748 -48.5341 374.211C-39.1657 373.022 -19.837 369.106 -5.5822 365.511ZM-32.1144 340.704C-21.0717 337.52 -7.61406 332.781 -2.20853 330.174C3.19699 327.567 13.0233 321.615 19.6248 316.949C26.2295 312.285 36.9319 302.38 43.4096 294.943C49.8873 287.505 57.317 277.116 59.9195 271.858C62.5221 266.601 66.4883 256.677 68.735 249.807C70.9787 242.936 75.9389 224.331 79.7568 208.462C83.5718 192.593 88.879 173.497 91.5461 166.027C94.2132 158.557 100.267 145.772 105.001 137.616C109.732 129.461 119.407 116.632 126.497 109.106C133.587 101.582 144.666 91.0777 151.116 85.7636C157.57 80.4491 173.481 69.9824 186.478 62.5061C199.475 55.0298 224.655 42.0281 242.434 33.6133C260.212 25.2004 283.503 13.1719 294.192 6.88505C304.881 0.600173 320.626 -10.3687 329.184 -17.4867C337.743 -24.6048 344.569 -31.9442 344.358 -33.7941C344.147 -35.6461 342.763 -37.0215 341.284 -36.8526C339.804 -36.6837 331.414 -30.3947 322.641 -22.8772C313.87 -15.3621 298.034 -4.22662 287.454 1.86353C276.876 7.95532 251.138 21.2032 230.26 31.3046C209.383 41.406 187.057 52.6529 180.651 56.3004C174.241 59.9462 160.214 69.4803 149.479 77.4902C138.743 85.498 122.913 100.127 114.298 109.997C105.683 119.867 95.9636 132.516 92.6937 138.104C89.4264 143.69 83.703 156.803 79.9793 167.241C76.2525 177.678 73.3732 187.702 73.5798 189.512C73.7864 191.323 73.0012 195.684 71.8326 199.202C70.6669 202.721 67.7905 213.937 65.4456 224.126C63.0978 234.315 58.5469 249.266 55.3307 257.35C52.1174 265.433 44.4454 278.605 38.2822 286.618C32.1221 294.633 22.3803 304.855 16.6375 309.335C10.8944 313.812 -0.671445 320.538 -9.0644 324.278C-17.4571 328.02 -30.7931 332.813 -38.6988 334.93C-46.6044 337.047 -56.6354 339.673 -60.9928 340.769C-65.3647 341.868 -68.7629 344.073 -68.5784 345.69C-68.3601 347.603 -65.457 348.25 -60.2182 347.556C-55.8024 346.972 -43.1571 343.889 -32.1144 340.704ZM-39.4894 318.216C-24.2294 311.383 -13.9524 304.76 -0.853506 293.322C8.96128 284.751 20.5896 271.875 24.9889 264.709C29.3884 257.544 36.0447 243.209 39.7808 232.853C43.5142 222.5 50.2381 199.23 54.7183 181.142C59.1985 163.055 65.7559 142.063 69.2886 134.494C72.8243 126.925 78.2244 117.289 81.2934 113.08C84.3623 108.872 91.6956 100.26 97.5842 93.9416C103.476 87.625 116.828 77.4423 127.256 71.3135C137.684 65.1846 151.267 57.7016 157.441 54.684C163.614 51.6664 175.031 46.5712 182.812 43.3622C190.593 40.1531 199.512 36.5275 202.631 35.3056C205.751 34.0838 220.978 27.331 236.47 20.2976C251.962 13.2661 270.88 3.80122 278.509 -0.733487C286.139 -5.26622 297.548 -13.369 303.859 -18.7393C310.17 -24.1097 315.199 -29.6986 315.032 -31.1627C314.865 -32.6249 312.892 -33.6123 310.646 -33.356C308.4 -33.0996 302.866 -29.3052 298.35 -24.9254C293.835 -20.5457 279.791 -10.9756 267.14 -3.65908C254.491 3.65516 228.23 16.2392 208.782 24.3034C189.334 32.3676 162.853 44.1448 149.939 50.4772C137.022 56.8099 121.955 64.9474 116.454 68.5616C110.953 72.1759 102.748 78.2616 98.2191 82.0856C93.6872 85.91 86.1444 93.2569 81.4504 98.4126C76.7594 103.568 68.6192 115.806 63.3652 125.607C58.1082 135.409 50.9101 154.55 47.3653 168.139C43.8236 181.73 39.5716 198.416 37.9187 205.219C36.2686 212.022 33.3945 222.272 31.5325 227.996C29.6735 233.72 23.8469 246.111 18.5878 255.53C13.3258 264.95 4.19511 277.438 -1.70872 283.285C-7.60984 289.13 -20.8309 298.901 -31.0884 304.994C-41.3456 311.09 -54.2497 317.407 -59.7643 319.032C-65.4879 320.722 -70.0358 323.472 -70.3626 325.437C-70.7299 327.67 -69.0574 328.643 -65.6058 328.203C-62.677 327.829 -50.9245 323.335 -39.4894 318.216ZM-47.7979 289.209C-36.2628 283.044 -21.2344 272.702 -14.401 266.226C-7.56789 259.748 1.91967 247.559 6.68561 239.14C11.9713 229.798 18.9519 209.399 24.5956 186.813C29.6813 166.452 37.0728 143.059 41.019 134.83C44.9649 126.599 53.2751 112.971 59.486 104.545C65.697 96.1197 78.3938 82.4822 87.7068 74.2398C97.0169 65.9977 107.822 57.0979 111.717 54.4626C115.611 51.8274 121.603 48.1831 125.034 46.3645C128.467 44.5455 138.475 39.6633 147.277 35.5119C156.079 31.3625 169.64 25.295 177.415 22.0306C185.19 18.7661 194.101 15.0753 197.217 13.8257C200.334 12.5781 209.232 8.77448 216.991 5.3735C224.75 1.97251 239.533 -5.76971 249.838 -11.8305C260.144 -17.8912 268.434 -24.1168 268.257 -25.666C268.08 -27.2152 266.222 -28.2859 264.125 -28.0466C262.028 -27.8073 255.413 -24.4586 249.421 -20.6039C243.429 -16.7472 229.68 -9.34741 218.866 -4.1547C208.052 1.03603 192.821 7.75517 185.018 10.7763C177.216 13.7954 160.056 21.1376 146.885 27.0924C133.714 33.0472 112.583 45.1838 99.9272 54.0644C85.6639 64.0744 70.9524 77.0378 61.2231 88.174C52.5889 98.0546 41.9972 112.434 37.6877 120.127C33.3752 127.821 28.029 139.255 25.8068 145.535C23.5847 151.816 19.1146 167.629 15.8753 180.677C12.636 193.724 8.46075 209.083 6.60171 214.807C4.74268 220.531 -0.659284 232.177 -5.40313 240.686C-11.6489 251.895 -18.4991 259.652 -30.264 268.84C-39.1944 275.814 -52.792 284.363 -60.4806 287.836C-68.1691 291.311 -74.3378 295.226 -74.1881 296.538C-74.0383 297.85 -72.7578 299.257 -71.3421 299.669C-69.9295 300.079 -59.3332 295.372 -47.7979 289.209ZM-63.8874 268.136C-59.4 265.635 -49.6175 258.027 -42.1514 251.228C-33.0614 242.953 -26.1143 233.605 -21.1408 222.956C-17.0524 214.207 -11.1713 197.752 -8.07162 186.388C-4.96882 175.026 0.556451 157.27 4.20862 146.932C7.86079 136.594 16.1923 118.506 22.7209 106.737C29.2494 94.9679 39.0369 80.2654 44.4679 74.0655C49.8991 67.8675 59.3739 59.4062 65.523 55.267C71.6719 51.1257 84.2876 44.2281 93.5627 39.9365C102.838 35.643 124.823 26.6839 142.416 20.0239C160.01 13.3639 183.525 3.29818 194.672 -2.3455C205.82 -7.98721 217.289 -14.5977 220.16 -17.034C225.057 -21.1887 225.056 -21.5112 220.097 -22.212C216.929 -22.6602 211.846 -21.0919 207.41 -18.2987C203.338 -15.7355 193.616 -10.4809 185.806 -6.62106C177.992 -2.7609 150.909 8.64009 125.614 18.7125C100.322 28.7866 74.1934 40.3553 67.5502 44.4226C60.9068 48.488 49.4742 57.5496 42.1416 64.5578C34.8119 71.5657 24.2351 84.8811 18.6387 94.1485C13.0392 103.414 6.16823 116.078 3.36923 122.288C0.569996 128.497 -3.68103 138.312 -6.07818 144.097C-8.47533 149.883 -12.3297 162.499 -14.646 172.134C-16.9623 181.769 -21.3932 196.706 -24.4917 205.327C-27.5932 213.949 -31.8281 223.855 -33.9043 227.339C-35.9802 230.825 -41.7974 238.365 -46.8345 244.098C-51.8715 249.83 -60.8234 257.213 -66.7253 260.506C-72.6276 263.798 -77.3714 267.556 -77.2674 268.857C-77.1633 270.158 -75.9467 271.55 -74.5618 271.951C-73.1799 272.353 -68.3749 270.636 -63.8874 268.136ZM-58.7443 232.182C-51.6982 225.259 -43.3452 215.667 -40.1811 210.864C-37.0139 206.063 -32.7729 194.577 -30.7549 185.339C-28.7369 176.101 -26.0032 158.624 -24.6816 146.503C-23.3602 134.381 -19.8432 117.744 -16.8666 109.533C-13.8874 101.32 -7.51909 88.2245 -2.71419 80.4325C2.31823 72.2717 13.604 59.7954 23.8959 51.0183C35.3757 41.2278 48.9657 32.3529 61.8839 26.2104C72.9444 20.9494 97.8705 10.5523 117.27 3.10292C136.673 -4.34481 152.956 -11.5828 153.454 -12.9786C153.987 -14.4645 151.67 -15.2123 147.88 -14.7797C144.315 -14.3729 128.452 -9.2993 112.629 -3.50482C96.8061 2.28966 76.5999 10.4063 67.7265 14.5318C58.8532 18.6572 46.2808 25.3114 39.7876 29.3176C33.2947 33.3257 23.5477 40.1284 18.1229 44.4355C12.701 48.7423 3.93861 57.1624 -1.34512 63.1471C-6.62885 69.1317 -14.0772 79.9033 -17.8972 87.0839C-21.7172 94.2645 -26.7205 107.118 -29.0148 115.648C-31.3091 124.178 -33.9585 136.656 -34.9008 143.378C-35.8402 150.1 -37.8643 164.217 -39.3937 174.75C-40.9263 185.281 -44.2746 197.84 -46.8355 202.658C-49.3996 207.474 -52.8998 213.356 -54.6171 215.726C-56.3313 218.099 -62.8534 224.706 -69.1085 230.408C-75.3634 236.113 -80.3711 241.894 -80.2333 243.257C-80.0987 244.619 -78.0881 245.518 -75.769 245.253C-73.4469 244.988 -65.7871 239.107 -58.7443 232.182Z" fill="#185654"/>
</g>
</g>
<defs>
<clipPath id="clip0_4404_6925">
<rect width="1280" height="720" fill="white"/>
</clipPath>
</defs>
</svg>
